<svg
   width="300"
   height="300"
   viewBox="0 0 79.374998 79.375002"
   version="1.1"
   id="svg2365"
   inkscape:version="1.1.1 (3bf5ae0d25, 2021-09-20)"
   sodipodi:docname="challengepics.svg"
   xmlns:inkscape="http://www.inkscape.org/namespaces/inkscape"
   xmlns:sodipodi="http://sodipodi.sourceforge.net/DTD/sodipodi-0.dtd"
   xmlns="http://www.w3.org/2000/svg"
   xmlns:svg="http://www.w3.org/2000/svg">
  <defs
     id="defs2362" />
  <g
     inkscape:groupmode="layer"
     id="layer2"
     inkscape:label="Calque 2">
    <path
       id="rect14225"
       style="fill:#000000;fill-opacity:1;stroke:none;stroke-width:31.2437;stroke-linecap:round;stroke-linejoin:round;stroke-opacity:0.97992;paint-order:fill markers stroke"
       d="M 37.636719 8.0605469 C 37.298375 8.0605469 36.960413 8.3292401 36.701172 8.8632812 L 29.427734 23.841797 C 29.383892 23.932041 29.348859 24.032097 29.3125 24.130859 C 28.983417 24.739172 28.292367 25.956937 27.689453 26.603516 C 27.189618 27.139551 26.261692 27.744773 25.609375 28.138672 C 25.345288 28.201374 25.09899 28.283816 24.878906 28.390625 L 9.9003906 35.664062 C 9.3663604 35.923338 9.0976562 36.259339 9.0976562 36.597656 C 9.0976562 36.936 9.3663525 37.275911 9.9003906 37.535156 L 23.65625 44.214844 C 23.792358 44.408015 23.891886 44.612946 23.96875 44.833984 C 23.892596 45.068769 23.780153 45.298595 23.634766 45.519531 L 9.8984375 52.1875 C 9.364408 52.446776 9.0976563 52.78473 9.0976562 53.123047 C 9.0976562 53.46139 9.3643891 53.801309 9.8984375 54.060547 L 23.640625 60.734375 C 23.783794 60.933254 23.88927 61.142576 23.96875 61.371094 C 23.894316 61.600473 23.785084 61.825522 23.644531 62.041016 L 9.8984375 68.714844 C 9.364408 68.974119 9.0976562 69.310117 9.0976562 69.648438 C 9.0976562 69.986781 9.3663525 70.324743 9.9003906 70.583984 L 24.878906 77.857422 C 24.878906 77.857422 24.880859 77.859375 24.880859 77.859375 L 24.880859 77.923828 C 24.880859 77.923828 25.018826 77.950386 25.207031 77.992188 C 25.429952 78.070991 25.670277 78.131913 25.921875 78.173828 C 26.603305 78.364732 27.448236 78.660012 27.929688 79.058594 C 28.409963 79.4562 28.812501 80.185534 29.091797 80.802734 C 29.151627 81.232784 29.262682 81.640542 29.427734 81.980469 L 36.699219 96.957031 C 36.958494 97.49106 37.296445 97.759766 37.634766 97.759766 C 37.973109 97.759766 38.31106 97.491078 38.570312 96.957031 L 45.25 83.201172 C 45.443172 83.065071 45.650059 82.963594 45.871094 82.886719 C 46.105878 82.962876 46.333755 83.077258 46.554688 83.222656 L 53.222656 96.957031 C 53.481932 97.49106 53.821839 97.759766 54.160156 97.759766 C 54.4985 97.759766 54.836462 97.491075 55.095703 96.957031 L 61.769531 83.214844 C 61.96841 83.071675 62.179689 82.966164 62.408203 82.886719 C 62.63762 82.961138 62.860675 83.07233 63.076172 83.212891 L 69.75 96.957031 C 70.009276 97.49106 70.347226 97.759766 70.685547 97.759766 C 71.02389 97.759766 71.361852 97.491075 71.621094 96.957031 L 78.894531 81.980469 C 79.011621 81.739259 79.099924 81.462677 79.164062 81.169922 C 79.435811 80.566955 79.872776 79.720608 80.384766 79.232422 C 81.22816 78.42824 83.160156 77.751953 83.160156 77.751953 L 83.160156 77.673828 C 83.183211 77.663623 83.207905 77.655492 83.230469 77.644531 L 98.207031 70.371094 C 98.741067 70.111818 99.011719 69.775821 99.011719 69.4375 C 99.011719 69.099157 98.741052 68.761198 98.207031 68.501953 L 84.451172 61.822266 C 84.315071 61.629094 84.215547 61.422206 84.138672 61.201172 C 84.214829 60.96635 84.327258 60.736557 84.472656 60.515625 L 98.208984 53.847656 C 98.743017 53.588381 99.011719 53.25043 99.011719 52.912109 C 99.011719 52.573766 98.743028 52.235804 98.208984 51.976562 L 84.466797 45.302734 C 84.323628 45.103856 84.218118 44.89258 84.138672 44.664062 C 84.213091 44.434683 84.32233 44.211587 84.462891 43.996094 L 98.208984 37.322266 C 98.743017 37.06299 99.011719 36.725039 99.011719 36.386719 C 99.011719 36.048375 98.741052 35.710413 98.207031 35.451172 L 83.230469 28.177734 C 82.921341 28.027649 82.556768 27.920464 82.169922 27.857422 C 81.559105 27.503809 80.816614 27.021559 80.386719 26.535156 C 79.643335 25.69406 78.875 23.759766 78.875 23.759766 L 78.853516 23.759766 L 71.623047 8.8632812 C 71.363771 8.3292518 71.025821 8.0605469 70.6875 8.0605469 C 70.349157 8.0605469 70.011195 8.3292397 69.751953 8.8632812 L 63.070312 22.619141 C 62.877141 22.755249 62.672206 22.856729 62.451172 22.933594 C 62.21635 22.85744 61.98851 22.744985 61.767578 22.599609 L 55.097656 8.8632812 C 54.838381 8.3292521 54.50043 8.0605469 54.162109 8.0605469 C 53.823804 8.0605469 53.483851 8.3292401 53.224609 8.8632812 L 46.552734 22.605469 C 46.353856 22.748611 46.14258 22.854133 45.914062 22.933594 C 45.684645 22.85916 45.461587 22.749921 45.246094 22.609375 L 38.572266 8.8632812 C 38.313005 8.3292518 37.975038 8.0605469 37.636719 8.0605469 z M 137.63672 8.0605469 C 137.29838 8.0605469 136.96041 8.3292401 136.70117 8.8632812 L 129.42773 23.841797 C 129.38389 23.932041 129.34886 24.032097 129.3125 24.130859 C 128.98342 24.739172 128.29237 25.956937 127.68945 26.603516 C 127.18962 27.139551 126.26169 27.744773 125.60938 28.138672 C 125.3453 28.201374 125.09899 28.283816 124.87891 28.390625 L 109.90039 35.664062 C 109.36636 35.923338 109.09766 36.259339 109.09766 36.597656 C 109.09766 36.936 109.36633 37.275911 109.90039 37.535156 L 123.65625 44.214844 C 123.79235 44.408015 123.89191 44.612946 123.96875 44.833984 C 123.89259 45.068769 123.78016 45.298595 123.63477 45.519531 L 109.89844 52.1875 C 109.36441 52.446776 109.09766 52.78473 109.09766 53.123047 C 109.09766 53.46139 109.36439 53.801309 109.89844 54.060547 L 123.64062 60.734375 C 123.78379 60.933254 123.88927 61.142576 123.96875 61.371094 C 123.89433 61.600473 123.78509 61.825522 123.64453 62.041016 L 109.89844 68.714844 C 109.36441 68.974119 109.09766 69.310117 109.09766 69.648438 C 109.09766 69.986781 109.36637 70.324743 109.90039 70.583984 L 124.87891 77.857422 C 124.87891 77.857422 124.88086 77.859375 124.88086 77.859375 L 124.88086 77.923828 C 124.88086 77.923828 125.01881 77.950386 125.20703 77.992188 C 125.42995 78.070991 125.67028 78.131913 125.92188 78.173828 C 126.6033 78.364732 127.44824 78.660012 127.92969 79.058594 C 128.40996 79.4562 128.8125 80.185534 129.0918 80.802734 C 129.15163 81.232784 129.26268 81.640542 129.42773 81.980469 L 136.69922 96.957031 C 136.95849 97.49106 137.29644 97.759766 137.63477 97.759766 C 137.97311 97.759766 138.31106 97.491078 138.57031 96.957031 L 145.25 83.201172 C 145.44317 83.065071 145.65006 82.963594 145.87109 82.886719 C 146.10588 82.962876 146.33376 83.077258 146.55469 83.222656 L 153.22266 96.957031 C 153.48193 97.49106 153.82184 97.759766 154.16016 97.759766 C 154.4985 97.759766 154.83646 97.491075 155.0957 96.957031 L 161.76953 83.214844 C 161.96841 83.071675 162.17969 82.966164 162.4082 82.886719 C 162.63762 82.961138 162.86067 83.07233 163.07617 83.212891 L 169.75 96.957031 C 170.00928 97.49106 170.34723 97.759766 170.68555 97.759766 C 171.02389 97.759766 171.36185 97.491075 171.62109 96.957031 L 178.89453 81.980469 C 179.01162 81.739259 179.09992 81.462677 179.16406 81.169922 C 179.43581 80.566955 179.87278 79.720608 180.38477 79.232422 C 181.22816 78.42824 183.16016 77.751953 183.16016 77.751953 L 183.16016 77.673828 C 183.18321 77.663623 183.2079 77.655492 183.23047 77.644531 L 198.20703 70.371094 C 198.74107 70.111818 199.01172 69.775821 199.01172 69.4375 C 199.01172 69.099157 198.74105 68.761198 198.20703 68.501953 L 184.45117 61.822266 C 184.31507 61.629094 184.21555 61.422206 184.13867 61.201172 C 184.21483 60.96635 184.32726 60.736557 184.47266 60.515625 L 198.20898 53.847656 C 198.74302 53.588381 199.01172 53.25043 199.01172 52.912109 C 199.01172 52.573766 198.74303 52.235804 198.20898 51.976562 L 184.4668 45.302734 C 184.32363 45.103856 184.21812 44.89258 184.13867 44.664062 C 184.21309 44.434683 184.32233 44.211587 184.46289 43.996094 L 198.20898 37.322266 C 198.74302 37.06299 199.01172 36.725039 199.01172 36.386719 C 199.01172 36.048375 198.74105 35.710413 198.20703 35.451172 L 183.23047 28.177734 C 182.92134 28.027649 182.55677 27.920464 182.16992 27.857422 C 181.5591 27.503809 180.81661 27.021559 180.38672 26.535156 C 179.64333 25.69406 178.875 23.759766 178.875 23.759766 L 178.85352 23.759766 L 171.62305 8.8632812 C 171.36377 8.3292518 171.02582 8.0605469 170.6875 8.0605469 C 170.34916 8.0605469 170.01119 8.3292397 169.75195 8.8632812 L 163.07031 22.619141 C 162.87714 22.755249 162.67221 22.856729 162.45117 22.933594 C 162.21635 22.85744 161.98851 22.744985 161.76758 22.599609 L 155.09766 8.8632812 C 154.83838 8.3292521 154.50043 8.0605469 154.16211 8.0605469 C 153.8238 8.0605469 153.48385 8.3292401 153.22461 8.8632812 L 146.55273 22.605469 C 146.35386 22.748611 146.14258 22.854133 145.91406 22.933594 C 145.68465 22.85916 145.46159 22.749921 145.24609 22.609375 L 138.57227 8.8632812 C 138.31301 8.3292518 137.97504 8.0605469 137.63672 8.0605469 z M 237.63672 8.0605469 C 237.29838 8.0605469 236.96041 8.3292401 236.70117 8.8632812 L 229.42773 23.841797 C 229.38389 23.932041 229.34886 24.032097 229.3125 24.130859 C 228.98342 24.739172 228.29237 25.956937 227.68945 26.603516 C 227.18962 27.139551 226.26169 27.744773 225.60938 28.138672 C 225.3453 28.201374 225.09899 28.283816 224.87891 28.390625 L 209.90039 35.664062 C 209.36636 35.923338 209.09766 36.259339 209.09766 36.597656 C 209.09766 36.936 209.36633 37.275911 209.90039 37.535156 L 223.65625 44.214844 C 223.79235 44.408015 223.89191 44.612946 223.96875 44.833984 C 223.89259 45.068769 223.78016 45.298595 223.63477 45.519531 L 209.89844 52.1875 C 209.36441 52.446776 209.09766 52.78473 209.09766 53.123047 C 209.09766 53.46139 209.36439 53.801309 209.89844 54.060547 L 223.64062 60.734375 C 223.78379 60.933254 223.88927 61.142576 223.96875 61.371094 C 223.89433 61.600473 223.78509 61.825522 223.64453 62.041016 L 209.89844 68.714844 C 209.36441 68.974119 209.09766 69.310117 209.09766 69.648438 C 209.09766 69.986781 209.36637 70.324743 209.90039 70.583984 L 224.87891 77.857422 C 224.87891 77.857422 224.88086 77.859375 224.88086 77.859375 L 224.88086 77.923828 C 224.88086 77.923828 225.01881 77.950386 225.20703 77.992188 C 225.42995 78.070991 225.67028 78.131913 225.92188 78.173828 C 226.6033 78.364732 227.44824 78.660012 227.92969 79.058594 C 228.40996 79.4562 228.8125 80.185534 229.0918 80.802734 C 229.15163 81.232784 229.26268 81.640542 229.42773 81.980469 L 236.69922 96.957031 C 236.95849 97.49106 237.29644 97.759766 237.63477 97.759766 C 237.97311 97.759766 238.31106 97.491078 238.57031 96.957031 L 245.25 83.201172 C 245.44317 83.065071 245.65006 82.963594 245.87109 82.886719 C 246.10588 82.962876 246.33376 83.077258 246.55469 83.222656 L 253.22266 96.957031 C 253.48193 97.49106 253.82184 97.759766 254.16016 97.759766 C 254.4985 97.759766 254.83646 97.491075 255.0957 96.957031 L 261.76953 83.214844 C 261.96841 83.071675 262.17969 82.966164 262.4082 82.886719 C 262.63762 82.961138 262.86067 83.07233 263.07617 83.212891 L 269.75 96.957031 C 270.00928 97.49106 270.34723 97.759766 270.68555 97.759766 C 271.02389 97.759766 271.36185 97.491075 271.62109 96.957031 L 278.89453 81.980469 C 279.01162 81.739259 279.09992 81.462677 279.16406 81.169922 C 279.43581 80.566955 279.87278 79.720608 280.38477 79.232422 C 281.22816 78.42824 283.16016 77.751953 283.16016 77.751953 L 283.16016 77.673828 C 283.18321 77.663623 283.2079 77.655492 283.23047 77.644531 L 298.20703 70.371094 C 298.74107 70.111818 299.01172 69.775821 299.01172 69.4375 C 299.01172 69.099157 298.74105 68.761198 298.20703 68.501953 L 284.45117 61.822266 C 284.31507 61.629094 284.21555 61.422206 284.13867 61.201172 C 284.21483 60.96635 284.32726 60.736557 284.47266 60.515625 L 298.20898 53.847656 C 298.74302 53.588381 299.01172 53.25043 299.01172 52.912109 C 299.01172 52.573766 298.74303 52.235804 298.20898 51.976562 L 284.4668 45.302734 C 284.32363 45.103856 284.21812 44.89258 284.13867 44.664062 C 284.21309 44.434683 284.32233 44.211587 284.46289 43.996094 L 298.20898 37.322266 C 298.74302 37.06299 299.01172 36.725039 299.01172 36.386719 C 299.01172 36.048375 298.74105 35.710413 298.20703 35.451172 L 283.23047 28.177734 C 282.92134 28.027649 282.55677 27.920464 282.16992 27.857422 C 281.5591 27.503809 280.81661 27.021559 280.38672 26.535156 C 279.64333 25.69406 278.875 23.759766 278.875 23.759766 L 278.85352 23.759766 L 271.62305 8.8632812 C 271.36377 8.3292518 271.02582 8.0605469 270.6875 8.0605469 C 270.34916 8.0605469 270.01119 8.3292397 269.75195 8.8632812 L 263.07031 22.619141 C 262.87714 22.755249 262.67221 22.856729 262.45117 22.933594 C 262.21635 22.85744 261.98851 22.744985 261.76758 22.599609 L 255.09766 8.8632812 C 254.83838 8.3292521 254.50043 8.0605469 254.16211 8.0605469 C 253.8238 8.0605469 253.48385 8.3292401 253.22461 8.8632812 L 246.55273 22.605469 C 246.35386 22.748611 246.14258 22.854133 245.91406 22.933594 C 245.68465 22.85916 245.46159 22.749921 245.24609 22.609375 L 238.57227 8.8632812 C 238.31301 8.3292518 237.97504 8.0605469 237.63672 8.0605469 z M 83.205078 44.603516 L 83.205078 44.605469 L 83.1875 44.658203 L 83.197266 44.6875 C 83.184793 44.681831 83.172591 44.675969 83.160156 44.669922 L 83.160156 44.623047 C 83.174896 44.616244 83.190489 44.610319 83.205078 44.603516 z M 183.20508 44.603516 L 183.20508 44.605469 L 183.1875 44.658203 L 183.19727 44.6875 C 183.18479 44.681831 183.17259 44.675969 183.16016 44.669922 L 183.16016 44.623047 C 183.1749 44.616244 183.19049 44.610319 183.20508 44.603516 z M 283.20508 44.603516 L 283.20508 44.605469 L 283.1875 44.658203 L 283.19727 44.6875 C 283.18479 44.681831 283.17259 44.675969 283.16016 44.669922 L 283.16016 44.623047 C 283.1749 44.616244 283.19049 44.610319 283.20508 44.603516 z M 83.207031 61.130859 L 83.1875 61.193359 L 83.195312 61.212891 L 83.160156 61.195312 L 83.160156 61.152344 C 83.176408 61.145163 83.190968 61.13804 83.207031 61.130859 z M 183.20703 61.130859 L 183.1875 61.193359 L 183.19531 61.212891 L 183.16016 61.195312 L 183.16016 61.152344 C 183.17641 61.145163 183.19097 61.13804 183.20703 61.130859 z M 283.20703 61.130859 L 283.1875 61.193359 L 283.19531 61.212891 L 283.16016 61.195312 L 283.16016 61.152344 C 283.17641 61.145163 283.19097 61.13804 283.20703 61.130859 z M 45.894531 81.865234 L 45.902344 81.865234 C 45.915572 81.895849 45.92964 81.927286 45.943359 81.957031 L 45.876953 81.9375 L 45.859375 81.943359 C 45.871469 81.918037 45.883193 81.891313 45.894531 81.865234 z M 62.419922 81.865234 L 62.427734 81.865234 C 62.440585 81.894715 62.453455 81.924363 62.466797 81.953125 L 62.416016 81.9375 L 62.382812 81.947266 C 62.395285 81.920431 62.408205 81.894362 62.419922 81.867188 L 62.419922 81.865234 z M 145.89453 81.865234 L 145.90234 81.865234 C 145.91557 81.895849 145.92964 81.927286 145.94336 81.957031 L 145.87695 81.9375 L 145.85938 81.943359 C 145.87147 81.918037 145.88319 81.891313 145.89453 81.865234 z M 162.41992 81.865234 L 162.42773 81.865234 C 162.44058 81.894715 162.45346 81.924363 162.4668 81.953125 L 162.41602 81.9375 L 162.38281 81.947266 C 162.39528 81.920431 162.40821 81.894362 162.41992 81.867188 L 162.41992 81.865234 z M 245.89453 81.865234 L 245.90234 81.865234 C 245.91557 81.895849 245.92964 81.927286 245.94336 81.957031 L 245.87695 81.9375 L 245.85938 81.943359 C 245.87147 81.918037 245.88319 81.891313 245.89453 81.865234 z M 262.41992 81.865234 L 262.42773 81.865234 C 262.44058 81.894715 262.45346 81.924363 262.4668 81.953125 L 262.41602 81.9375 L 262.38281 81.947266 C 262.39528 81.920431 262.40821 81.894362 262.41992 81.867188 L 262.41992 81.865234 z M 37.636719 108.06055 C 37.298375 108.06055 36.960413 108.32923 36.701172 108.86328 L 29.427734 123.8418 C 29.383892 123.93205 29.348859 124.0321 29.3125 124.13086 C 28.983417 124.73917 28.292367 125.95694 27.689453 126.60352 C 27.189618 127.13955 26.261691 127.74477 25.609375 128.13867 C 25.345299 128.20137 25.098988 128.28382 24.878906 128.39062 L 9.9003906 135.66406 C 9.3663585 135.92334 9.0976562 136.25934 9.0976562 136.59766 C 9.0976562 136.936 9.366332 137.27591 9.9003906 137.53516 L 23.65625 144.21484 C 23.792351 144.40802 23.891912 144.61295 23.96875 144.83398 C 23.892593 145.06877 23.780164 145.2986 23.634766 145.51953 L 9.8984375 152.1875 C 9.3644054 152.44678 9.0976562 152.78473 9.0976562 153.12305 C 9.0976562 153.46139 9.3643865 153.80131 9.8984375 154.06055 L 23.640625 160.73438 C 23.783794 160.93325 23.889267 161.14258 23.96875 161.37109 C 23.894331 161.60047 23.785092 161.82552 23.644531 162.04102 L 9.8984375 168.71484 C 9.3644054 168.97412 9.0976563 169.31012 9.0976562 169.64844 C 9.0976562 169.98678 9.3663698 170.32474 9.9003906 170.58398 L 24.878906 177.85742 C 24.878906 177.85742 24.880859 177.85938 24.880859 177.85938 L 24.880859 177.92383 C 24.880859 177.92383 25.018811 177.95039 25.207031 177.99219 C 25.429948 178.07099 25.670276 178.13191 25.921875 178.17383 C 26.603305 178.36473 27.448236 178.66001 27.929688 179.05859 C 28.409963 179.4562 28.812501 180.18553 29.091797 180.80273 C 29.151627 181.23278 29.262682 181.64054 29.427734 181.98047 L 36.699219 196.95703 C 36.958494 197.49106 37.296445 197.75977 37.634766 197.75977 C 37.973109 197.75977 38.31106 197.49108 38.570312 196.95703 L 45.25 183.20117 C 45.443172 183.06507 45.650059 182.96359 45.871094 182.88672 C 46.105878 182.96288 46.333755 183.07726 46.554688 183.22266 L 53.222656 196.95703 C 53.481932 197.49106 53.821839 197.75977 54.160156 197.75977 C 54.4985 197.75977 54.836462 197.49107 55.095703 196.95703 L 61.769531 183.21484 C 61.96841 183.07168 62.179689 182.96616 62.408203 182.88672 C 62.63762 182.96114 62.860675 183.07233 63.076172 183.21289 L 69.75 196.95703 C 70.009276 197.49106 70.347226 197.75977 70.685547 197.75977 C 71.02389 197.75977 71.361852 197.49107 71.621094 196.95703 L 78.894531 181.98047 C 79.011621 181.73926 79.099924 181.46268 79.164062 181.16992 C 79.435811 180.56695 79.872776 179.72061 80.384766 179.23242 C 81.22816 178.42824 83.160156 177.75195 83.160156 177.75195 L 83.160156 177.67383 C 83.183211 177.66362 83.207905 177.65549 83.230469 177.64453 L 98.207031 170.37109 C 98.741067 170.11182 99.011719 169.77582 99.011719 169.4375 C 99.011719 169.09916 98.741052 168.7612 98.207031 168.50195 L 84.451172 161.82227 C 84.315071 161.62909 84.215547 161.42221 84.138672 161.20117 C 84.214829 160.96635 84.327258 160.73656 84.472656 160.51562 L 98.208984 153.84766 C 98.743017 153.58838 99.011719 153.25043 99.011719 152.91211 C 99.011719 152.57377 98.743028 152.2358 98.208984 151.97656 L 84.466797 145.30273 C 84.323628 145.10386 84.218118 144.89258 84.138672 144.66406 C 84.213091 144.43468 84.32233 144.21159 84.462891 143.99609 L 98.208984 137.32227 C 98.743017 137.06299 99.011719 136.72504 99.011719 136.38672 C 99.011719 136.04838 98.741052 135.71041 98.207031 135.45117 L 83.230469 128.17773 C 82.921341 128.02765 82.556768 127.92046 82.169922 127.85742 C 81.559105 127.50381 80.816614 127.02156 80.386719 126.53516 C 79.643335 125.69406 78.875 123.75977 78.875 123.75977 L 78.853516 123.75977 L 71.623047 108.86328 C 71.363771 108.32925 71.025821 108.06055 70.6875 108.06055 C 70.349157 108.06055 70.011195 108.32923 69.751953 108.86328 L 63.070312 122.61914 C 62.877141 122.75524 62.672206 122.85672 62.451172 122.93359 C 62.21635 122.85744 61.98851 122.74497 61.767578 122.59961 L 55.097656 108.86328 C 54.838381 108.32925 54.50043 108.0625 54.162109 108.0625 C 53.823804 108.0625 53.483851 108.32923 53.224609 108.86328 L 46.552734 122.60547 C 46.353856 122.7486 46.14258 122.85415 45.914062 122.93359 C 45.684645 122.85917 45.461587 122.74994 45.246094 122.60938 L 38.572266 108.86328 C 38.31299 108.32925 37.975038 108.06055 37.636719 108.06055 z M 237.63672 108.06055 C 237.29838 108.06055 236.96041 108.32923 236.70117 108.86328 L 229.42773 123.8418 C 229.38389 123.93205 229.34886 124.0321 229.3125 124.13086 C 228.98342 124.73917 228.29237 125.95694 227.68945 126.60352 C 227.18962 127.13955 226.26169 127.74477 225.60938 128.13867 C 225.3453 128.20137 225.09899 128.28382 224.87891 128.39062 L 209.90039 135.66406 C 209.36636 135.92334 209.09766 136.25934 209.09766 136.59766 C 209.09766 136.936 209.36633 137.27591 209.90039 137.53516 L 223.65625 144.21484 C 223.79235 144.40802 223.89191 144.61295 223.96875 144.83398 C 223.89259 145.06877 223.78016 145.2986 223.63477 145.51953 L 209.89844 152.1875 C 209.36441 152.44678 209.09766 152.78473 209.09766 153.12305 C 209.09766 153.46139 209.36439 153.80131 209.89844 154.06055 L 223.64062 160.73438 C 223.78379 160.93325 223.88927 161.14258 223.96875 161.37109 C 223.89433 161.60047 223.78509 161.82552 223.64453 162.04102 L 209.89844 168.71484 C 209.36441 168.97412 209.09766 169.31012 209.09766 169.64844 C 209.09766 169.98678 209.36637 170.32474 209.90039 170.58398 L 224.87891 177.85742 C 224.87891 177.85742 224.88086 177.85938 224.88086 177.85938 L 224.88086 177.92383 C 224.88086 177.92383 225.01881 177.95039 225.20703 177.99219 C 225.42995 178.07099 225.67028 178.13191 225.92188 178.17383 C 226.6033 178.36473 227.44824 178.66001 227.92969 179.05859 C 228.40996 179.4562 228.8125 180.18553 229.0918 180.80273 C 229.15163 181.23278 229.26268 181.64054 229.42773 181.98047 L 236.69922 196.95703 C 236.95849 197.49106 237.29644 197.75977 237.63477 197.75977 C 237.97311 197.75977 238.31106 197.49108 238.57031 196.95703 L 245.25 183.20117 C 245.44317 183.06507 245.65006 182.96359 245.87109 182.88672 C 246.10588 182.96288 246.33376 183.07726 246.55469 183.22266 L 253.22266 196.95703 C 253.48193 197.49106 253.82184 197.75977 254.16016 197.75977 C 254.4985 197.75977 254.83646 197.49107 255.0957 196.95703 L 261.76953 183.21484 C 261.96841 183.07168 262.17969 182.96616 262.4082 182.88672 C 262.63762 182.96114 262.86067 183.07233 263.07617 183.21289 L 269.75 196.95703 C 270.00928 197.49106 270.34723 197.75977 270.68555 197.75977 C 271.02389 197.75977 271.36185 197.49107 271.62109 196.95703 L 278.89453 181.98047 C 279.01162 181.73926 279.09992 181.46268 279.16406 181.16992 C 279.43581 180.56695 279.87278 179.72061 280.38477 179.23242 C 281.22816 178.42824 283.16016 177.75195 283.16016 177.75195 L 283.16016 177.67383 C 283.18321 177.66362 283.2079 177.65549 283.23047 177.64453 L 298.20703 170.37109 C 298.74107 170.11182 299.01172 169.77582 299.01172 169.4375 C 299.01172 169.09916 298.74105 168.7612 298.20703 168.50195 L 284.45117 161.82227 C 284.31507 161.62909 284.21555 161.42221 284.13867 161.20117 C 284.21483 160.96635 284.32726 160.73656 284.47266 160.51562 L 298.20898 153.84766 C 298.74302 153.58838 299.01172 153.25043 299.01172 152.91211 C 299.01172 152.57377 298.74303 152.2358 298.20898 151.97656 L 284.4668 145.30273 C 284.32363 145.10386 284.21812 144.89258 284.13867 144.66406 C 284.21309 144.43468 284.32233 144.21159 284.46289 143.99609 L 298.20898 137.32227 C 298.74302 137.06299 299.01172 136.72504 299.01172 136.38672 C 299.01172 136.04838 298.74105 135.71041 298.20703 135.45117 L 283.23047 128.17773 C 282.92134 128.02765 282.55677 127.92046 282.16992 127.85742 C 281.5591 127.50381 280.81661 127.02156 280.38672 126.53516 C 279.64333 125.69406 278.875 123.75977 278.875 123.75977 L 278.85352 123.75977 L 271.62305 108.86328 C 271.36377 108.32925 271.02582 108.06055 270.6875 108.06055 C 270.34916 108.06055 270.01119 108.32923 269.75195 108.86328 L 263.07031 122.61914 C 262.87714 122.75524 262.67221 122.85672 262.45117 122.93359 C 262.21635 122.85744 261.98851 122.74497 261.76758 122.59961 L 255.09766 108.86328 C 254.83838 108.32925 254.50043 108.0625 254.16211 108.0625 C 253.8238 108.0625 253.48385 108.32923 253.22461 108.86328 L 246.55273 122.60547 C 246.35386 122.7486 246.14258 122.85415 245.91406 122.93359 C 245.68465 122.85917 245.46159 122.74994 245.24609 122.60938 L 238.57227 108.86328 C 238.31299 108.32925 237.97504 108.06055 237.63672 108.06055 z M 83.205078 144.60352 L 83.205078 144.60547 L 83.1875 144.6582 L 83.197266 144.6875 C 83.184793 144.68183 83.172591 144.67597 83.160156 144.66992 L 83.160156 144.62305 C 83.174896 144.61624 83.190489 144.61032 83.205078 144.60352 z M 283.20508 144.60352 L 283.20508 144.60547 L 283.1875 144.6582 L 283.19727 144.6875 C 283.18479 144.68183 283.17259 144.67597 283.16016 144.66992 L 283.16016 144.62305 C 283.1749 144.61624 283.19049 144.61032 283.20508 144.60352 z M 83.207031 161.13086 L 83.1875 161.19336 L 83.195312 161.21289 L 83.160156 161.19531 L 83.160156 161.15234 C 83.176408 161.14516 83.190968 161.13804 83.207031 161.13086 z M 283.20703 161.13086 L 283.1875 161.19336 L 283.19531 161.21289 L 283.16016 161.19531 L 283.16016 161.15234 C 283.17641 161.14516 283.19097 161.13804 283.20703 161.13086 z M 45.894531 181.86523 L 45.902344 181.86523 C 45.915572 181.89585 45.92964 181.92729 45.943359 181.95703 L 45.876953 181.9375 L 45.859375 181.94336 C 45.871469 181.91804 45.883193 181.89131 45.894531 181.86523 z M 62.419922 181.86523 L 62.427734 181.86523 C 62.440585 181.89471 62.453455 181.92436 62.466797 181.95312 L 62.416016 181.9375 L 62.382812 181.94727 C 62.395285 181.92043 62.408205 181.89436 62.419922 181.86719 L 62.419922 181.86523 z M 245.89453 181.86523 L 245.90234 181.86523 C 245.91557 181.89585 245.92964 181.92729 245.94336 181.95703 L 245.87695 181.9375 L 245.85938 181.94336 C 245.87147 181.91804 245.88319 181.89131 245.89453 181.86523 z M 262.41992 181.86523 L 262.42773 181.86523 C 262.44058 181.89471 262.45346 181.92436 262.4668 181.95312 L 262.41602 181.9375 L 262.38281 181.94727 C 262.39528 181.92043 262.40821 181.89436 262.41992 181.86719 L 262.41992 181.86523 z M 137.63672 208.06055 C 137.29838 208.06055 136.96041 208.32923 136.70117 208.86328 L 129.42773 223.8418 C 129.38389 223.93205 129.34886 224.0321 129.3125 224.13086 C 128.98342 224.73917 128.29237 225.95694 127.68945 226.60352 C 127.18962 227.13955 126.26169 227.74477 125.60938 228.13867 C 125.3453 228.20137 125.09899 228.28382 124.87891 228.39062 L 109.90039 235.66406 C 109.36636 235.92334 109.09766 236.25934 109.09766 236.59766 C 109.09766 236.936 109.36633 237.27591 109.90039 237.53516 L 123.65625 244.21484 C 123.79235 244.40802 123.89191 244.61295 123.96875 244.83398 C 123.89259 245.06877 123.78016 245.2986 123.63477 245.51953 L 109.89844 252.1875 C 109.36441 252.44678 109.09766 252.78473 109.09766 253.12305 C 109.09766 253.46139 109.36439 253.80131 109.89844 254.06055 L 123.64062 260.73438 C 123.78379 260.93325 123.88927 261.14258 123.96875 261.37109 C 123.89433 261.60047 123.78509 261.82552 123.64453 262.04102 L 109.89844 268.71484 C 109.36441 268.97412 109.09766 269.31012 109.09766 269.64844 C 109.09766 269.98678 109.36637 270.32474 109.90039 270.58398 L 124.87891 277.85742 C 124.87891 277.85742 124.88086 277.85938 124.88086 277.85938 L 124.88086 277.92383 C 124.88086 277.92383 125.01881 277.95039 125.20703 277.99219 C 125.42995 278.07099 125.67028 278.13191 125.92188 278.17383 C 126.6033 278.36473 127.44824 278.66001 127.92969 279.05859 C 128.40996 279.4562 128.8125 280.18553 129.0918 280.80273 C 129.15163 281.23278 129.26268 281.64054 129.42773 281.98047 L 136.69922 296.95703 C 136.95849 297.49106 137.29644 297.75977 137.63477 297.75977 C 137.97311 297.75977 138.31106 297.49108 138.57031 296.95703 L 145.25 283.20117 C 145.44317 283.06507 145.65006 282.96359 145.87109 282.88672 C 146.10588 282.96288 146.33376 283.07726 146.55469 283.22266 L 153.22266 296.95703 C 153.48193 297.49106 153.82184 297.75977 154.16016 297.75977 C 154.4985 297.75977 154.83646 297.49107 155.0957 296.95703 L 161.76953 283.21484 C 161.96841 283.07168 162.17969 282.96616 162.4082 282.88672 C 162.63762 282.96114 162.86067 283.07233 163.07617 283.21289 L 169.75 296.95703 C 170.00928 297.49106 170.34723 297.75977 170.68555 297.75977 C 171.02389 297.75977 171.36185 297.49107 171.62109 296.95703 L 178.89453 281.98047 C 179.01162 281.73926 179.09992 281.46268 179.16406 281.16992 C 179.43581 280.56695 179.87278 279.72061 180.38477 279.23242 C 181.22816 278.42824 183.16016 277.75195 183.16016 277.75195 L 183.16016 277.67578 C 183.18321 277.66558 183.2079 277.65549 183.23047 277.64453 L 198.20703 270.37109 C 198.74107 270.11182 199.01172 269.77582 199.01172 269.4375 C 199.01172 269.09916 198.74105 268.7612 198.20703 268.50195 L 184.45117 261.82227 C 184.31507 261.62909 184.21555 261.42221 184.13867 261.20117 C 184.21483 260.96635 184.32726 260.73656 184.47266 260.51562 L 198.20898 253.84766 C 198.74302 253.58838 199.01172 253.25043 199.01172 252.91211 C 199.01172 252.57377 198.74303 252.2358 198.20898 251.97656 L 184.4668 245.30273 C 184.32363 245.10386 184.21812 244.89258 184.13867 244.66406 C 184.21309 244.43468 184.32233 244.21159 184.46289 243.99609 L 198.20898 237.32227 C 198.74302 237.06299 199.01172 236.72504 199.01172 236.38672 C 199.01172 236.04838 198.74105 235.71041 198.20703 235.45117 L 183.23047 228.17773 C 182.92134 228.02765 182.55677 227.92242 182.16992 227.85938 C 181.5591 227.50576 180.81661 227.02156 180.38672 226.53516 C 179.64333 225.69406 178.875 223.75977 178.875 223.75977 L 178.85352 223.75977 L 171.62305 208.86328 C 171.36377 208.32925 171.02582 208.0625 170.6875 208.0625 C 170.34916 208.0625 170.01119 208.32923 169.75195 208.86328 L 163.07031 222.61914 C 162.87714 222.75524 162.67221 222.85672 162.45117 222.93359 C 162.21635 222.85744 161.98851 222.74497 161.76758 222.59961 L 155.09766 208.86328 C 154.83838 208.32925 154.50043 208.0625 154.16211 208.0625 C 153.8238 208.0625 153.48385 208.32923 153.22461 208.86328 L 146.55273 222.60547 C 146.35386 222.7486 146.14258 222.85415 145.91406 222.93359 C 145.68465 222.85917 145.46159 222.74994 145.24609 222.60938 L 138.57227 208.86328 C 138.31299 208.32925 137.97504 208.06055 137.63672 208.06055 z M 183.20508 244.60352 L 183.20508 244.60547 L 183.1875 244.6582 L 183.19727 244.6875 C 183.18479 244.68183 183.17259 244.67597 183.16016 244.66992 L 183.16016 244.62305 C 183.1749 244.61624 183.19049 244.61032 183.20508 244.60352 z M 183.20703 261.13086 L 183.1875 261.19336 L 183.19531 261.21289 L 183.16016 261.19531 L 183.16016 261.15234 C 183.17641 261.14516 183.19097 261.13804 183.20703 261.13086 z M 145.89453 281.86523 L 145.90234 281.86523 C 145.91557 281.89585 145.92964 281.92729 145.94336 281.95703 L 145.87695 281.9375 L 145.85938 281.94336 C 145.87147 281.91804 145.88319 281.89131 145.89453 281.86523 z M 162.41992 281.86523 L 162.42773 281.86523 C 162.44058 281.89471 162.45346 281.92436 162.4668 281.95312 L 162.41602 281.9375 L 162.38281 281.94727 C 162.39528 281.92043 162.40821 281.89436 162.41992 281.86719 L 162.41992 281.86523 z "
       transform="scale(0.26458333)" />
    <path
       id="path18731"
       style="fill:#ffffff;fill-opacity:1;stroke:none;stroke-width:31.2437;stroke-linecap:round;stroke-linejoin:round;stroke-opacity:0.97992;paint-order:fill markers stroke"
       d="M 137.63672 108.06055 C 137.29838 108.06055 136.96041 108.32923 136.70117 108.86328 L 129.42773 123.8418 C 129.38389 123.93205 129.34886 124.0321 129.3125 124.13086 C 128.98342 124.73917 128.29237 125.95694 127.68945 126.60352 C 127.18962 127.13955 126.26169 127.74477 125.60938 128.13867 C 125.3453 128.20137 125.09899 128.28382 124.87891 128.39062 L 109.90039 135.66406 C 109.36636 135.92334 109.09766 136.25934 109.09766 136.59766 C 109.09766 136.936 109.36633 137.27591 109.90039 137.53516 L 123.65625 144.21484 C 123.79235 144.40802 123.89191 144.61295 123.96875 144.83398 C 123.89259 145.06877 123.78016 145.2986 123.63477 145.51953 L 109.89844 152.1875 C 109.36441 152.44678 109.09766 152.78473 109.09766 153.12305 C 109.09766 153.46139 109.36439 153.80131 109.89844 154.06055 L 123.64062 160.73438 C 123.78379 160.93325 123.88927 161.14258 123.96875 161.37109 C 123.89433 161.60047 123.78509 161.82552 123.64453 162.04102 L 109.89844 168.71484 C 109.36441 168.97412 109.09766 169.31012 109.09766 169.64844 C 109.09766 169.98678 109.36637 170.32474 109.90039 170.58398 L 124.87891 177.85742 C 124.87891 177.85742 124.88086 177.85938 124.88086 177.85938 L 124.88086 177.92383 C 124.88086 177.92383 125.01881 177.95039 125.20703 177.99219 C 125.42995 178.07099 125.67028 178.13191 125.92188 178.17383 C 126.6033 178.36473 127.44824 178.66001 127.92969 179.05859 C 128.40996 179.4562 128.8125 180.18553 129.0918 180.80273 C 129.15163 181.23278 129.26268 181.64054 129.42773 181.98047 L 136.69922 196.95703 C 136.95849 197.49106 137.29644 197.75977 137.63477 197.75977 C 137.97311 197.75977 138.31106 197.49108 138.57031 196.95703 L 145.25 183.20117 C 145.44317 183.06507 145.65006 182.96359 145.87109 182.88672 C 146.10588 182.96288 146.33376 183.07726 146.55469 183.22266 L 153.22266 196.95703 C 153.48193 197.49106 153.82184 197.75977 154.16016 197.75977 C 154.4985 197.75977 154.83646 197.49107 155.0957 196.95703 L 161.76953 183.21484 C 161.96841 183.07168 162.17969 182.96616 162.4082 182.88672 C 162.63762 182.96114 162.86067 183.07233 163.07617 183.21289 L 169.75 196.95703 C 170.00928 197.49106 170.34723 197.75977 170.68555 197.75977 C 171.02389 197.75977 171.36185 197.49107 171.62109 196.95703 L 178.89453 181.98047 C 179.01162 181.73926 179.09992 181.46268 179.16406 181.16992 C 179.43581 180.56695 179.87278 179.72061 180.38477 179.23242 C 181.22816 178.42824 183.16016 177.75195 183.16016 177.75195 L 183.16016 177.67383 C 183.18321 177.66362 183.2079 177.65549 183.23047 177.64453 L 198.20703 170.37109 C 198.74107 170.11182 199.01172 169.77582 199.01172 169.4375 C 199.01172 169.09916 198.74105 168.7612 198.20703 168.50195 L 184.45117 161.82227 C 184.31507 161.62909 184.21555 161.42221 184.13867 161.20117 C 184.21483 160.96635 184.32726 160.73656 184.47266 160.51562 L 198.20898 153.84766 C 198.74302 153.58838 199.01172 153.25043 199.01172 152.91211 C 199.01172 152.57377 198.74303 152.2358 198.20898 151.97656 L 184.4668 145.30273 C 184.32363 145.10386 184.21812 144.89258 184.13867 144.66406 C 184.21309 144.43468 184.32233 144.21159 184.46289 143.99609 L 198.20898 137.32227 C 198.74302 137.06299 199.01172 136.72504 199.01172 136.38672 C 199.01172 136.04838 198.74105 135.71041 198.20703 135.45117 L 183.23047 128.17773 C 182.92134 128.02765 182.55677 127.92046 182.16992 127.85742 C 181.5591 127.50381 180.81661 127.02156 180.38672 126.53516 C 179.64333 125.69406 178.875 123.75977 178.875 123.75977 L 178.85352 123.75977 L 171.62305 108.86328 C 171.36377 108.32925 171.02582 108.06055 170.6875 108.06055 C 170.34916 108.06055 170.01119 108.32923 169.75195 108.86328 L 163.07031 122.61914 C 162.87714 122.75524 162.67221 122.85672 162.45117 122.93359 C 162.21635 122.85744 161.98851 122.74497 161.76758 122.59961 L 155.09766 108.86328 C 154.83838 108.32925 154.50043 108.0625 154.16211 108.0625 C 153.8238 108.0625 153.48385 108.32923 153.22461 108.86328 L 146.55273 122.60547 C 146.35386 122.7486 146.14258 122.85415 145.91406 122.93359 C 145.68465 122.85917 145.46159 122.74994 145.24609 122.60938 L 138.57227 108.86328 C 138.31299 108.32925 137.97504 108.06055 137.63672 108.06055 z M 183.20508 144.60352 L 183.20508 144.60547 L 183.1875 144.6582 L 183.19727 144.6875 C 183.18479 144.68183 183.17259 144.67597 183.16016 144.66992 L 183.16016 144.62305 C 183.1749 144.61624 183.19049 144.61032 183.20508 144.60352 z M 183.20703 161.13086 L 183.1875 161.19336 L 183.19531 161.21289 L 183.16016 161.19531 L 183.16016 161.15234 C 183.17641 161.14516 183.19097 161.13804 183.20703 161.13086 z M 145.89453 181.86523 L 145.90234 181.86523 C 145.91557 181.89585 145.92964 181.92729 145.94336 181.95703 L 145.87695 181.9375 L 145.85938 181.94336 C 145.87147 181.91804 145.88319 181.89131 145.89453 181.86523 z M 162.41992 181.86523 L 162.42773 181.86523 C 162.44058 181.89471 162.45346 181.92436 162.4668 181.95312 L 162.41602 181.9375 L 162.38281 181.94727 C 162.39528 181.92043 162.40821 181.89436 162.41992 181.86719 L 162.41992 181.86523 z M 37.636719 208.06055 C 37.298375 208.06055 36.960413 208.32923 36.701172 208.86328 L 29.427734 223.8418 C 29.383892 223.93205 29.348859 224.0321 29.3125 224.13086 C 28.983417 224.73917 28.292367 225.95694 27.689453 226.60352 C 27.189618 227.13955 26.261691 227.74477 25.609375 228.13867 C 25.345299 228.20137 25.098988 228.28382 24.878906 228.39062 L 9.9003906 235.66406 C 9.3663585 235.92334 9.0976562 236.25934 9.0976562 236.59766 C 9.0976562 236.936 9.366332 237.27591 9.9003906 237.53516 L 23.65625 244.21484 C 23.792351 244.40802 23.891912 244.61295 23.96875 244.83398 C 23.892593 245.06877 23.780164 245.2986 23.634766 245.51953 L 9.8984375 252.1875 C 9.3644054 252.44678 9.0976562 252.78473 9.0976562 253.12305 C 9.0976562 253.46139 9.3643865 253.80131 9.8984375 254.06055 L 23.640625 260.73438 C 23.783794 260.93325 23.889267 261.14258 23.96875 261.37109 C 23.894331 261.60047 23.785092 261.82552 23.644531 262.04102 L 9.8984375 268.71484 C 9.3644054 268.97412 9.0976563 269.31012 9.0976562 269.64844 C 9.0976562 269.98678 9.3663698 270.32474 9.9003906 270.58398 L 24.878906 277.85742 C 24.878906 277.85742 24.880859 277.85938 24.880859 277.85938 L 24.880859 277.92383 C 24.880859 277.92383 25.018811 277.95039 25.207031 277.99219 C 25.429948 278.07099 25.670276 278.13191 25.921875 278.17383 C 26.603305 278.36473 27.448236 278.66001 27.929688 279.05859 C 28.409963 279.4562 28.812501 280.18553 29.091797 280.80273 C 29.151627 281.23278 29.262682 281.64054 29.427734 281.98047 L 36.699219 296.95703 C 36.958494 297.49106 37.296445 297.75977 37.634766 297.75977 C 37.973109 297.75977 38.31106 297.49108 38.570312 296.95703 L 45.25 283.20117 C 45.443172 283.06507 45.650059 282.96359 45.871094 282.88672 C 46.105878 282.96288 46.333755 283.07726 46.554688 283.22266 L 53.222656 296.95703 C 53.481932 297.49106 53.821839 297.75977 54.160156 297.75977 C 54.4985 297.75977 54.836462 297.49107 55.095703 296.95703 L 61.769531 283.21484 C 61.96841 283.07168 62.179689 282.96616 62.408203 282.88672 C 62.63762 282.96114 62.860675 283.07233 63.076172 283.21289 L 69.75 296.95703 C 70.009276 297.49106 70.347226 297.75977 70.685547 297.75977 C 71.02389 297.75977 71.361852 297.49107 71.621094 296.95703 L 78.894531 281.98047 C 79.011621 281.73926 79.099924 281.46268 79.164062 281.16992 C 79.435811 280.56695 79.872776 279.72061 80.384766 279.23242 C 81.22816 278.42824 83.160156 277.75195 83.160156 277.75195 L 83.160156 277.67578 C 83.183211 277.66558 83.207905 277.65549 83.230469 277.64453 L 98.207031 270.37109 C 98.741067 270.11182 99.011719 269.77582 99.011719 269.4375 C 99.011719 269.09916 98.741052 268.7612 98.207031 268.50195 L 84.451172 261.82227 C 84.315071 261.62909 84.215547 261.42221 84.138672 261.20117 C 84.214829 260.96635 84.327258 260.73656 84.472656 260.51562 L 98.208984 253.84766 C 98.743017 253.58838 99.011719 253.25043 99.011719 252.91211 C 99.011719 252.57377 98.743028 252.2358 98.208984 251.97656 L 84.466797 245.30273 C 84.323628 245.10386 84.218118 244.89258 84.138672 244.66406 C 84.213091 244.43468 84.32233 244.21159 84.462891 243.99609 L 98.208984 237.32227 C 98.743017 237.06299 99.011719 236.72504 99.011719 236.38672 C 99.011719 236.04838 98.741052 235.71041 98.207031 235.45117 L 83.230469 228.17773 C 82.921341 228.02765 82.556768 227.92242 82.169922 227.85938 C 81.559105 227.50576 80.816614 227.02156 80.386719 226.53516 C 79.643335 225.69406 78.875 223.75977 78.875 223.75977 L 78.853516 223.75977 L 71.623047 208.86328 C 71.363771 208.32925 71.025821 208.0625 70.6875 208.0625 C 70.349157 208.0625 70.011195 208.32923 69.751953 208.86328 L 63.070312 222.61914 C 62.877141 222.75524 62.672206 222.85672 62.451172 222.93359 C 62.21635 222.85744 61.98851 222.74497 61.767578 222.59961 L 55.097656 208.86328 C 54.838381 208.32925 54.50043 208.0625 54.162109 208.0625 C 53.823804 208.0625 53.483851 208.32923 53.224609 208.86328 L 46.552734 222.60547 C 46.353856 222.7486 46.14258 222.85415 45.914062 222.93359 C 45.684645 222.85917 45.461587 222.74994 45.246094 222.60938 L 38.572266 208.86328 C 38.31299 208.32925 37.975038 208.06055 37.636719 208.06055 z M 237.63672 208.06055 C 237.29838 208.06055 236.96041 208.32923 236.70117 208.86328 L 229.42773 223.8418 C 229.38389 223.93205 229.34886 224.0321 229.3125 224.13086 C 228.98342 224.73917 228.29237 225.95694 227.68945 226.60352 C 227.18962 227.13955 226.26169 227.74477 225.60938 228.13867 C 225.3453 228.20137 225.09899 228.28382 224.87891 228.39062 L 209.90039 235.66406 C 209.36636 235.92334 209.09766 236.25934 209.09766 236.59766 C 209.09766 236.936 209.36633 237.27591 209.90039 237.53516 L 223.65625 244.21484 C 223.79235 244.40802 223.89191 244.61295 223.96875 244.83398 C 223.89259 245.06877 223.78016 245.2986 223.63477 245.51953 L 209.89844 252.1875 C 209.36441 252.44678 209.09766 252.78473 209.09766 253.12305 C 209.09766 253.46139 209.36439 253.80131 209.89844 254.06055 L 223.64062 260.73438 C 223.78379 260.93325 223.88927 261.14258 223.96875 261.37109 C 223.89433 261.60047 223.78509 261.82552 223.64453 262.04102 L 209.89844 268.71484 C 209.36441 268.97412 209.09766 269.31012 209.09766 269.64844 C 209.09766 269.98678 209.36637 270.32474 209.90039 270.58398 L 224.87891 277.85742 C 224.87891 277.85742 224.88086 277.85938 224.88086 277.85938 L 224.88086 277.92383 C 224.88086 277.92383 225.01881 277.95039 225.20703 277.99219 C 225.42995 278.07099 225.67028 278.13191 225.92188 278.17383 C 226.6033 278.36473 227.44824 278.66001 227.92969 279.05859 C 228.40996 279.4562 228.8125 280.18553 229.0918 280.80273 C 229.15163 281.23278 229.26268 281.64054 229.42773 281.98047 L 236.69922 296.95703 C 236.95849 297.49106 237.29644 297.75977 237.63477 297.75977 C 237.97311 297.75977 238.31106 297.49108 238.57031 296.95703 L 245.25 283.20117 C 245.44317 283.06507 245.65006 282.96359 245.87109 282.88672 C 246.10588 282.96288 246.33376 283.07726 246.55469 283.22266 L 253.22266 296.95703 C 253.48193 297.49106 253.82184 297.75977 254.16016 297.75977 C 254.4985 297.75977 254.83646 297.49107 255.0957 296.95703 L 261.76953 283.21484 C 261.96841 283.07168 262.17969 282.96616 262.4082 282.88672 C 262.63762 282.96114 262.86067 283.07233 263.07617 283.21289 L 269.75 296.95703 C 270.00928 297.49106 270.34723 297.75977 270.68555 297.75977 C 271.02389 297.75977 271.36185 297.49107 271.62109 296.95703 L 278.89453 281.98047 C 279.01162 281.73926 279.09992 281.46268 279.16406 281.16992 C 279.43581 280.56695 279.87278 279.72061 280.38477 279.23242 C 281.22816 278.42824 283.16016 277.75195 283.16016 277.75195 L 283.16016 277.67578 C 283.18321 277.66558 283.2079 277.65549 283.23047 277.64453 L 298.20703 270.37109 C 298.74107 270.11182 299.01172 269.77582 299.01172 269.4375 C 299.01172 269.09916 298.74105 268.7612 298.20703 268.50195 L 284.45117 261.82227 C 284.31507 261.62909 284.21555 261.42221 284.13867 261.20117 C 284.21483 260.96635 284.32726 260.73656 284.47266 260.51562 L 298.20898 253.84766 C 298.74302 253.58838 299.01172 253.25043 299.01172 252.91211 C 299.01172 252.57377 298.74303 252.2358 298.20898 251.97656 L 284.4668 245.30273 C 284.32363 245.10386 284.21812 244.89258 284.13867 244.66406 C 284.21309 244.43468 284.32233 244.21159 284.46289 243.99609 L 298.20898 237.32227 C 298.74302 237.06299 299.01172 236.72504 299.01172 236.38672 C 299.01172 236.04838 298.74105 235.71041 298.20703 235.45117 L 283.23047 228.17773 C 282.92134 228.02765 282.55677 227.92242 282.16992 227.85938 C 281.5591 227.50576 280.81661 227.02156 280.38672 226.53516 C 279.64333 225.69406 278.875 223.75977 278.875 223.75977 L 278.85352 223.75977 L 271.62305 208.86328 C 271.36377 208.32925 271.02582 208.0625 270.6875 208.0625 C 270.34916 208.0625 270.01119 208.32923 269.75195 208.86328 L 263.07031 222.61914 C 262.87714 222.75524 262.67221 222.85672 262.45117 222.93359 C 262.21635 222.85744 261.98851 222.74497 261.76758 222.59961 L 255.09766 208.86328 C 254.83838 208.32925 254.50043 208.0625 254.16211 208.0625 C 253.8238 208.0625 253.48385 208.32923 253.22461 208.86328 L 246.55273 222.60547 C 246.35386 222.7486 246.14258 222.85415 245.91406 222.93359 C 245.68465 222.85917 245.46159 222.74994 245.24609 222.60938 L 238.57227 208.86328 C 238.31299 208.32925 237.97504 208.06055 237.63672 208.06055 z M 83.205078 244.60352 L 83.205078 244.60547 L 83.1875 244.6582 L 83.197266 244.6875 C 83.184793 244.68183 83.172591 244.67597 83.160156 244.66992 L 83.160156 244.62305 C 83.174896 244.61624 83.190489 244.61032 83.205078 244.60352 z M 283.20508 244.60352 L 283.20508 244.60547 L 283.1875 244.6582 L 283.19727 244.6875 C 283.18479 244.68183 283.17259 244.67597 283.16016 244.66992 L 283.16016 244.62305 C 283.1749 244.61624 283.19049 244.61032 283.20508 244.60352 z M 83.207031 261.13086 L 83.1875 261.19336 L 83.195312 261.21289 L 83.160156 261.19531 L 83.160156 261.15234 C 83.176408 261.14516 83.190968 261.13804 83.207031 261.13086 z M 283.20703 261.13086 L 283.1875 261.19336 L 283.19531 261.21289 L 283.16016 261.19531 L 283.16016 261.15234 C 283.17641 261.14516 283.19097 261.13804 283.20703 261.13086 z M 45.894531 281.86523 L 45.902344 281.86523 C 45.915572 281.89585 45.92964 281.92729 45.943359 281.95703 L 45.876953 281.9375 L 45.859375 281.94336 C 45.871469 281.91804 45.883193 281.89131 45.894531 281.86523 z M 62.419922 281.86523 L 62.427734 281.86523 C 62.440585 281.89471 62.453455 281.92436 62.466797 281.95312 L 62.416016 281.9375 L 62.382812 281.94727 C 62.395285 281.92043 62.408205 281.89436 62.419922 281.86719 L 62.419922 281.86523 z M 245.89453 281.86523 L 245.90234 281.86523 C 245.91557 281.89585 245.92964 281.92729 245.94336 281.95703 L 245.87695 281.9375 L 245.85938 281.94336 C 245.87147 281.91804 245.88319 281.89131 245.89453 281.86523 z M 262.41992 281.86523 L 262.42773 281.86523 C 262.44058 281.89471 262.45346 281.92436 262.4668 281.95312 L 262.41602 281.9375 L 262.38281 281.94727 C 262.39528 281.92043 262.40821 281.89436 262.41992 281.86719 L 262.41992 281.86523 z "
       transform="scale(0.26458333)" />
  </g>
  <g
     inkscape:label="Calque 1"
     inkscape:groupmode="layer"
     id="layer1" />
</svg>