
<svg
   width="300"
   height="300"
   viewBox="0 0 79.374998 79.375002"
   version="1.1"
   id="svg2365"
   inkscape:version="1.1.1 (3bf5ae0d25, 2021-09-20)"
   sodipodi:docname="challenges.svg"
   xmlns:inkscape="http://www.inkscape.org/namespaces/inkscape"
   xmlns:sodipodi="http://sodipodi.sourceforge.net/DTD/sodipodi-0.dtd"
   xmlns="http://www.w3.org/2000/svg"
   xmlns:svg="http://www.w3.org/2000/svg">
  <defs
     id="defs2362" />
  <g
     inkscape:groupmode="layer"
     id="layer2"
     inkscape:label="Calque 2">
    <g
       id="g2851"
       transform="matrix(1.0916184,0,0,1.0916184,-0.01769638,-0.0016474)">
      <path
         id="rect14225"
         style="fill:#ffffff;fill-opacity:1;stroke:none;stroke-width:8.81232;stroke-linecap:round;stroke-linejoin:round;stroke-opacity:0.97992;paint-order:fill markers stroke"
         d="m 33.558403,0.60913522 c -0.0951,0 -0.190117,0.0762439 -0.262983,0.22739123 L 31.251186,5.0757498 c -0.0054,0.01124 -0.01062,0.022685 -0.0156,0.034426 h -2.455007 c -0.810143,0 -1.462346,0.6567638 -1.462346,1.4725705 v 1.7132034 c -0.0053,0.00219 -0.01074,0.00423 -0.01579,0.00673 l -4.209794,2.0585273 c -0.1501,0.07339 -0.225812,0.168707 -0.225812,0.264465 0,0.09577 0.07572,0.191443 0.225812,0.264818 l 3.866339,1.890807 c 0.03521,0.05033 0.06154,0.103727 0.08239,0.160658 -0.02069,0.0592 -0.04953,0.116967 -0.08573,0.172839 l -3.863534,1.888865 c -0.150101,0.0734 -0.225286,0.169063 -0.225286,0.26482 0,0.09576 0.07572,0.191444 0.225813,0.264819 l 4.209791,2.058526 c 0.0051,0.0025 0.01048,0.0049 0.01579,0.0073 v 3.120452 c 0,0.815806 0.652204,1.47257 1.462347,1.47257 h 2.572298 l 1.961308,4.06709 c 0.07288,0.151151 0.167538,0.227393 0.262632,0.227393 0.0951,0 0.190114,-0.07625 0.262979,-0.227393 l 1.877856,-3.893369 c 0.04998,-0.03545 0.102826,-0.06196 0.159368,-0.08298 0.05879,0.02083 0.116152,0.04989 0.171637,0.08633 l 1.875928,3.890545 c 0.07288,0.151151 0.167713,0.226863 0.262804,0.226863 0.09509,0 0.190116,-0.07625 0.26298,-0.227394 l 1.961485,-4.06709 h 2.407323 c 0.810142,0 1.462347,-0.656764 1.462347,-1.47257 v -2.390453 c 0.0014,-5.22e-4 0.0074,-0.0028 0.0074,-0.0028 v -0.0219 c 0.0065,-0.0029 0.01347,-0.0054 0.01982,-0.0084 l 4.20979,-2.058527 c 0.150101,-0.0734 0.225812,-0.16871 0.225812,-0.264467 0,-0.09577 -0.07572,-0.191443 -0.225812,-0.264818 l -3.866358,-1.890837 c -0.03521,-0.05032 -0.06154,-0.103724 -0.0824,-0.160656 0.02069,-0.0592 0.04953,-0.116967 0.08573,-0.172839 l 3.863534,-1.888866 c 0.150101,-0.0734 0.225286,-0.169063 0.225286,-0.264819 0,-0.09577 -0.07572,-0.191445 -0.225813,-0.264819 L 44.30867,9.0068142 c -0.0089,-0.00428 -0.01801,-0.00846 -0.02718,-0.01253 V 6.5827467 c 0,-0.8158066 -0.652203,-1.4725704 -1.462345,-1.4725704 h -2.307917 c -0.0017,-0.00461 -0.0054,-0.014477 -0.0054,-0.014477 h -0.02174 c -0.0029,-0.00652 -0.0053,-0.013741 -0.0082,-0.020127 L 38.431613,0.83652645 c -0.07288,-0.15115098 -0.167538,-0.22739123 -0.26263,-0.22739123 -0.0951,0 -0.190116,0.0762439 -0.26298,0.22739123 L 36.028322,4.7298961 c -0.04997,0.035456 -0.103011,0.061965 -0.159542,0.082978 -0.0588,-0.020833 -0.116153,-0.049887 -0.171638,-0.086331 L 33.821205,0.83599687 C 33.748331,0.68484587 33.653493,0.60913522 33.558403,0.60913522 Z M 27.037889,18.7789 c -0.0032,0.0074 -0.0065,0.0146 -0.0099,0.02171 l 0.0047,-0.0014 0.0184,0.0053 c -0.0037,-0.0084 -0.0076,-0.01693 -0.0114,-0.0256 z" />
      <g
         id="g2228"
         transform="matrix(0.34903649,0,0,0.34987641,-0.64693916,-0.72828408)">
        <g
           id="layer2-2"
           inkscape:label="Calque 2">
          <path
             id="rect14225-1"
             style="fill:#000000;fill-opacity:1;stroke:none;stroke-width:25.8844;stroke-linecap:round;stroke-linejoin:round;stroke-opacity:0.97992;paint-order:fill markers stroke"
             d="m 26.051013,2.1329395 c -0.280307,0 -0.560419,0.2218214 -0.775192,0.6642568 L 19.250381,15.20586 c -0.03632,0.07476 -0.06557,0.158085 -0.09569,0.239907 -0.272635,0.503967 -0.845653,1.512566 -1.345147,2.048236 -0.414097,0.444087 -1.181924,0.945319 -1.722347,1.271651 -0.218787,0.05195 -0.423681,0.120896 -0.606014,0.209384 L 3.0725302,25.000479 c -0.4424263,0.214801 -0.6656414,0.493523 -0.6656414,0.773807 0,0.280306 0.2232085,0.561805 0.6656414,0.776581 l 11.3963318,5.533142 c 0.112761,0.160036 0.195657,0.331364 0.259336,0.514487 -0.06309,0.194511 -0.156905,0.384143 -0.277353,0.567181 L 3.0711553,38.690499 c -0.4424257,0.214802 -0.6642565,0.493523 -0.6642565,0.773808 0,0.280306 0.2218152,0.561811 0.6642565,0.776581 l 11.3852337,5.528984 c 0.118611,0.164764 0.205962,0.339035 0.271808,0.528354 -0.06167,0.190034 -0.152587,0.376169 -0.26903,0.554698 L 3.0711553,52.38191 c -0.4424257,0.214802 -0.6642565,0.49352 -0.6642565,0.773808 0,0.280306 0.2232085,0.560421 0.6656414,0.775194 l 12.4086568,6.025441 c 0.41257,0.12556 0.597701,0.207062 0.863874,0.262106 0.564542,0.158158 1.265238,0.403385 1.664105,0.733597 0.820561,0.649608 0.857184,1.613332 1.241147,2.419879 l 6.02405,12.408666 c 0.214801,0.442425 0.49491,0.664256 0.775197,0.664256 0.280307,0 0.560415,-0.221815 0.775197,-0.664256 l 5.534541,-11.396329 c 0.160037,-0.112755 0.329974,-0.197016 0.513094,-0.260705 0.19451,0.06309 0.384146,0.156906 0.567181,0.277363 l 5.524825,11.379693 c 0.214802,0.442425 0.494911,0.664252 0.775195,0.664252 0.280306,0 0.561808,-0.221815 0.776581,-0.664252 l 5.5276,-11.385241 c 0.164764,-0.118611 0.340419,-0.205971 0.529735,-0.271789 0.190065,0.06165 0.374785,0.152584 0.553317,0.269033 l 5.528983,11.388016 c 0.214802,0.442425 0.494904,0.664252 0.775192,0.664252 0.280306,0 0.560421,-0.221815 0.775194,-0.664252 l 6.025444,-12.408663 c 0.09701,-0.199834 0.17015,-0.42865 0.223286,-0.671188 0.225135,-0.499538 0.588158,-1.201415 1.012325,-1.605861 0.698724,-0.666238 2.297853,-1.225889 2.297853,-1.225889 v -0.06378 c 0.0191,-0.0085 0.03955,-0.01597 0.05824,-0.02505 L 76.231999,53.75475 c 0.442431,-0.214801 0.665643,-0.49352 0.665643,-0.773807 0,-0.280306 -0.223224,-0.560422 -0.665643,-0.775198 L 64.835667,46.671216 C 64.722912,46.51118 64.640029,46.34124 64.57634,46.15812 c 0.06309,-0.194542 0.156905,-0.385534 0.277363,-0.568569 l 11.379693,-5.524822 c 0.442428,-0.214801 0.664252,-0.493523 0.664252,-0.77381 0,-0.280306 -0.221815,-0.561809 -0.664252,-0.776582 L 64.848155,32.986744 c -0.118611,-0.164764 -0.205972,-0.340419 -0.27179,-0.529738 0.06165,-0.190034 0.152584,-0.374788 0.269034,-0.553317 l 11.388016,-5.52898 c 0.442427,-0.214802 0.664252,-0.494911 0.664252,-0.775198 0,-0.280306 -0.223224,-0.560421 -0.665643,-0.775194 L 63.823434,18.798873 C 63.567332,18.674533 63.266106,18.586232 62.945617,18.534004 62.439575,18.241047 61.823493,17.840049 61.46734,17.43708 60.851471,16.74026 60.215105,15.137846 60.215105,15.137846 h -0.0166 L 54.207644,2.7972073 C 53.992843,2.3547816 53.712743,2.1329501 53.432456,2.1329501 c -0.280306,0 -0.560425,0.2218214 -0.775198,0.6642572 L 47.12273,14.19354 c -0.160037,0.112761 -0.32998,0.197025 -0.5131,0.260705 -0.194542,-0.06309 -0.384149,-0.156905 -0.567185,-0.277344 L 40.517623,2.7972095 C 40.302822,2.3547841 40.02272,2.1329527 39.742432,2.1329527 c -0.280275,0 -0.561808,0.2218214 -0.776581,0.6642568 L 33.438254,14.182449 c -0.164764,0.118588 -0.340416,0.205964 -0.529735,0.271795 -0.190065,-0.06167 -0.374791,-0.152587 -0.55332,-0.269024 L 26.826219,2.7972054 C 26.61143,2.3547797 26.331308,2.1329483 26.051022,2.1329483 Z M 63.802574,32.407138 v 0.0014 l -0.01409,0.04299 0.0085,0.02505 c -0.01033,-0.0047 -0.02161,-0.0091 -0.03191,-0.01409 v -0.03883 c 0.01221,-0.0056 0.02536,-0.01096 0.03745,-0.0166 z m 0.0027,13.691411 -0.01659,0.0527 0.0056,0.01534 c -0.0097,-0.0047 -0.01941,-0.0094 -0.02912,-0.01409 v -0.03607 c 0.01346,-0.0059 0.02693,-0.0119 0.04024,-0.01785 z M 32.893248,63.27764 h 0.0056 c 0.01096,0.02536 0.02192,0.05026 0.03328,0.0749 l -0.05408,-0.01534 -0.01409,0.0041 c 0.01002,-0.02098 0.01973,-0.04218 0.02912,-0.06378 z m 13.690021,0 h 0.0056 c 0.01065,0.02442 0.02223,0.04828 0.03329,0.07211 l -0.04299,-0.01221 -0.0263,0.0069 c 0.01033,-0.02223 0.02067,-0.04406 0.03037,-0.06657 z"
             sodipodi:nodetypes="ccccscccscccccsccccssccccccscccccsccccsscccsccccscccccsccccsscccscccscccccscccccccccccccccccccccccccccccccccccc" />
          <path
             id="path2341"
             style="fill:#000000;fill-opacity:1;stroke:none;stroke-width:25.8844;stroke-linecap:round;stroke-linejoin:round;stroke-opacity:0.97992;paint-order:fill markers stroke"
             d="m 26.051013,2.1329395 c -0.280307,0 -0.560419,0.2218214 -0.775192,0.6642568 L 19.250381,15.20586 c -0.03632,0.07476 -0.06557,0.158085 -0.09569,0.239907 -0.272635,0.503967 -0.845653,1.512566 -1.345147,2.048236 -0.414097,0.444087 -1.181924,0.945319 -1.722347,1.271651 -0.218787,0.05195 -0.423681,0.120896 -0.606014,0.209384 L 3.0725302,25.000479 c -0.4424263,0.214801 -0.6656414,0.493523 -0.6656414,0.773807 0,0.280306 0.2232085,0.561805 0.6656414,0.776581 l 11.3963318,5.533142 c 0.112761,0.160036 0.195657,0.331364 0.259336,0.514487 -0.06309,0.194511 -0.156905,0.384143 -0.277353,0.567181 L 3.0711553,38.690499 c -0.4424257,0.214802 -0.6642565,0.493523 -0.6642565,0.773808 0,0.280306 0.2218152,0.561811 0.6642565,0.776581 l 11.3852337,5.528984 c 0.118611,0.164764 0.205962,0.339035 0.271808,0.528354 -0.06167,0.190034 -0.152587,0.376169 -0.26903,0.554698 L 3.0711553,52.38191 c -0.4424257,0.214802 -0.6642565,0.49352 -0.6642565,0.773808 0,0.280306 0.2232085,0.560421 0.6656414,0.775194 l 12.4086568,6.025441 c 0.41257,0.12556 0.597701,0.207062 0.863874,0.262106 0.564542,0.158158 1.265238,0.403385 1.664105,0.733597 0.820561,0.649608 0.857184,1.613332 1.241147,2.419879 l 6.02405,12.408666 c 0.214801,0.442425 0.49491,0.664256 0.775197,0.664256 0.280307,0 0.560415,-0.221815 0.775197,-0.664256 l 5.534541,-11.396329 c 0.160037,-0.112755 0.329974,-0.197016 0.513094,-0.260705 0.19451,0.06309 0.384146,0.156906 0.567181,0.277363 l 5.524825,11.379693 c 0.214802,0.442425 0.494911,0.664252 0.775195,0.664252 0.280306,0 0.561808,-0.221815 0.776581,-0.664252 l 5.5276,-11.385241 c 0.164764,-0.118611 0.340419,-0.205971 0.529735,-0.271789 0.190065,0.06165 0.374785,0.152584 0.553317,0.269033 l 5.528983,11.388016 c 0.214802,0.442425 0.494904,0.664252 0.775192,0.664252 0.280306,0 0.560421,-0.221815 0.775194,-0.664252 l 6.025444,-12.408663 c 0.09701,-0.199834 0.17015,-0.42865 0.223286,-0.671188 0.225135,-0.499538 0.588158,-1.201415 1.012325,-1.605861 0.698724,-0.666238 2.297853,-1.225889 2.297853,-1.225889 v -0.06378 c 0.0191,-0.0085 0.03955,-0.01597 0.05824,-0.02505 L 76.231999,53.75475 c 0.442431,-0.214801 0.665643,-0.49352 0.665643,-0.773807 0,-0.280306 -0.223224,-0.560422 -0.665643,-0.775198 L 64.835667,46.671216 C 64.722912,46.51118 64.640029,46.34124 64.57634,46.15812 c 0.06309,-0.194542 0.156905,-0.385534 0.277363,-0.568569 l 11.379693,-5.524822 c 0.442428,-0.214801 0.664252,-0.493523 0.664252,-0.77381 0,-0.280306 -0.221815,-0.561809 -0.664252,-0.776582 L 64.848155,32.986744 c -0.118611,-0.164764 -0.205972,-0.340419 -0.27179,-0.529738 0.06165,-0.190034 0.152584,-0.374788 0.269034,-0.553317 l 11.388016,-5.52898 c 0.442427,-0.214802 0.664252,-0.494911 0.664252,-0.775198 0,-0.280306 -0.223224,-0.560421 -0.665643,-0.775194 L 63.823434,18.798873 C 63.567332,18.674533 63.266106,18.586232 62.945617,18.534004 62.439575,18.241047 61.823493,17.840049 61.46734,17.43708 60.851471,16.74026 60.215105,15.137846 60.215105,15.137846 h -0.0166 L 54.207644,2.7972073 C 53.992843,2.3547816 53.712743,2.1329501 53.432456,2.1329501 c -0.280306,0 -0.560425,0.2218214 -0.775198,0.6642572 L 47.12273,14.19354 c -0.160037,0.112761 -0.32998,0.197025 -0.5131,0.260705 -0.194542,-0.06309 -0.384149,-0.156905 -0.567185,-0.277344 L 40.517623,2.7972095 C 40.302822,2.3547841 40.02272,2.1329527 39.742432,2.1329527 c -0.280275,0 -0.561808,0.2218214 -0.776581,0.6642568 L 33.438254,14.182449 c -0.164764,0.118588 -0.340416,0.205964 -0.529735,0.271795 -0.190065,-0.06167 -0.374791,-0.152587 -0.55332,-0.269024 L 26.826219,2.7972054 C 26.61143,2.3547797 26.331308,2.1329483 26.051022,2.1329483 Z M 63.802574,32.407138 v 0.0014 l -0.01409,0.04299 0.0085,0.02505 c -0.01033,-0.0047 -0.02161,-0.0091 -0.03191,-0.01409 v -0.03883 c 0.01221,-0.0056 0.02536,-0.01096 0.03745,-0.0166 z m 0.0027,13.691411 -0.01659,0.0527 0.0056,0.01534 c -0.0097,-0.0047 -0.01941,-0.0094 -0.02912,-0.01409 v -0.03607 c 0.01346,-0.0059 0.02693,-0.0119 0.04024,-0.01785 z M 32.893248,63.27764 h 0.0056 c 0.01096,0.02536 0.02192,0.05026 0.03328,0.0749 l -0.05408,-0.01534 -0.01409,0.0041 c 0.01002,-0.02098 0.01973,-0.04218 0.02912,-0.06378 z m 13.690021,0 h 0.0056 c 0.01065,0.02442 0.02223,0.04828 0.03329,0.07211 l -0.04299,-0.01221 -0.0263,0.0069 c 0.01033,-0.02223 0.02067,-0.04406 0.03037,-0.06657 z"
             sodipodi:nodetypes="ccccscccscccccsccccssccccccscccccsccccsscccsccccscccccsccccsscccscccscccccscccccccccccccccccccccccccccccccccccc" />
        </g>
        <g
           inkscape:label="Calque 1"
           id="layer1-9" />
      </g>
      <path
         id="path2339"
         style="fill:#000000;fill-opacity:1;stroke:none;stroke-width:8.81232;stroke-linecap:round;stroke-linejoin:round;stroke-opacity:0.97992;paint-order:fill markers stroke"
         d="m 33.558403,0.60913522 c -0.0951,0 -0.190117,0.0762439 -0.262983,0.22739123 L 31.251186,5.0757498 c -0.0054,0.01124 -0.01062,0.022685 -0.0156,0.034426 h -2.455007 c -0.810143,0 -1.462346,0.6567638 -1.462346,1.4725705 v 1.7132034 c -0.0053,0.00219 -0.01074,0.00423 -0.01579,0.00673 l -4.209794,2.0585273 c -0.1501,0.07339 -0.225812,0.168707 -0.225812,0.264465 0,0.09577 0.07572,0.191443 0.225812,0.264818 l 3.866339,1.890807 c 0.03521,0.05033 0.06154,0.103727 0.08239,0.160658 -0.02069,0.0592 -0.04953,0.116967 -0.08573,0.172839 l -3.863534,1.888865 c -0.150101,0.0734 -0.225286,0.169063 -0.225286,0.26482 0,0.09576 0.07572,0.191444 0.225813,0.264819 l 4.209791,2.058526 c 0.0051,0.0025 0.01048,0.0049 0.01579,0.0073 v 3.120452 c 0,0.815806 0.652204,1.47257 1.462347,1.47257 h 2.572298 l 1.961308,4.06709 c 0.07288,0.151151 0.167538,0.227393 0.262632,0.227393 0.0951,0 0.190114,-0.07625 0.262979,-0.227393 l 1.877856,-3.893369 c 0.04998,-0.03545 0.102826,-0.06196 0.159368,-0.08298 0.05879,0.02083 0.116152,0.04989 0.171637,0.08633 l 1.875928,3.890545 c 0.07288,0.151151 0.167713,0.226863 0.262804,0.226863 0.09509,0 0.190116,-0.07625 0.26298,-0.227394 l 1.961485,-4.06709 h 2.407323 c 0.810142,0 1.462347,-0.656764 1.462347,-1.47257 v -2.390453 c 0.0014,-5.22e-4 0.0074,-0.0028 0.0074,-0.0028 v -0.0219 c 0.0065,-0.0029 0.01347,-0.0054 0.01982,-0.0084 l 4.20979,-2.058527 c 0.150101,-0.0734 0.225812,-0.16871 0.225812,-0.264467 0,-0.09577 -0.07572,-0.191443 -0.225812,-0.264818 l -3.866358,-1.890837 c -0.03521,-0.05032 -0.06154,-0.103724 -0.0824,-0.160656 0.02069,-0.0592 0.04953,-0.116967 0.08573,-0.172839 l 3.863534,-1.888866 c 0.150101,-0.0734 0.225286,-0.169063 0.225286,-0.264819 0,-0.09577 -0.07572,-0.191445 -0.225813,-0.264819 L 44.30867,9.0068142 c -0.0089,-0.00428 -0.01801,-0.00846 -0.02718,-0.01253 V 6.5827467 c 0,-0.8158066 -0.652203,-1.4725704 -1.462345,-1.4725704 h -2.307917 c -0.0017,-0.00461 -0.0054,-0.014477 -0.0054,-0.014477 h -0.02174 c -0.0029,-0.00652 -0.0053,-0.013741 -0.0082,-0.020127 L 38.431613,0.83652645 c -0.07288,-0.15115098 -0.167538,-0.22739123 -0.26263,-0.22739123 -0.0951,0 -0.190116,0.0762439 -0.26298,0.22739123 L 36.028322,4.7298961 c -0.04997,0.035456 -0.103011,0.061965 -0.159542,0.082978 -0.0588,-0.020833 -0.116153,-0.049887 -0.171638,-0.086331 L 33.821205,0.83599687 C 33.748331,0.68484587 33.653493,0.60913522 33.558403,0.60913522 Z M 27.037889,18.7789 c -0.0032,0.0074 -0.0065,0.0146 -0.0099,0.02171 l 0.0047,-0.0014 0.0184,0.0053 c -0.0037,-0.0084 -0.0076,-0.01693 -0.0114,-0.0256 z" />
      <g
         id="g2351"
         transform="matrix(-0.34903649,0,0,-0.34987641,49.71672,49.987037)"
         style="fill:#ffffff;fill-opacity:1">
        <g
           id="g2347"
           inkscape:label="Calque 2"
           style="fill:#ffffff;fill-opacity:1">
          <path
             id="path2343"
             style="fill:#ffffff;fill-opacity:1;stroke:none;stroke-width:25.8844;stroke-linecap:round;stroke-linejoin:round;stroke-opacity:0.97992;paint-order:fill markers stroke"
             d="m 26.051013,2.1329395 c -0.280307,0 -0.560419,0.2218214 -0.775192,0.6642568 L 19.250381,15.20586 c -0.03632,0.07476 -0.06557,0.158085 -0.09569,0.239907 -0.272635,0.503967 -0.845653,1.512566 -1.345147,2.048236 -0.414097,0.444087 -1.181924,0.945319 -1.722347,1.271651 -0.218787,0.05195 -0.423681,0.120896 -0.606014,0.209384 L 3.0725302,25.000479 c -0.4424263,0.214801 -0.6656414,0.493523 -0.6656414,0.773807 0,0.280306 0.2232085,0.561805 0.6656414,0.776581 l 11.3963318,5.533142 c 0.112761,0.160036 0.195657,0.331364 0.259336,0.514487 -0.06309,0.194511 -0.156905,0.384143 -0.277353,0.567181 L 3.0711553,38.690499 c -0.4424257,0.214802 -0.6642565,0.493523 -0.6642565,0.773808 0,0.280306 0.2218152,0.561811 0.6642565,0.776581 l 11.3852337,5.528984 c 0.118611,0.164764 0.205962,0.339035 0.271808,0.528354 -0.06167,0.190034 -0.152587,0.376169 -0.26903,0.554698 L 3.0711553,52.38191 c -0.4424257,0.214802 -0.6642565,0.49352 -0.6642565,0.773808 0,0.280306 0.2232085,0.560421 0.6656414,0.775194 l 12.4086568,6.025441 c 0.41257,0.12556 0.597701,0.207062 0.863874,0.262106 0.564542,0.158158 1.265238,0.403385 1.664105,0.733597 0.820561,0.649608 0.857184,1.613332 1.241147,2.419879 l 6.02405,12.408666 c 0.214801,0.442425 0.49491,0.664256 0.775197,0.664256 0.280307,0 0.560415,-0.221815 0.775197,-0.664256 l 5.534541,-11.396329 c 0.160037,-0.112755 0.329974,-0.197016 0.513094,-0.260705 0.19451,0.06309 0.384146,0.156906 0.567181,0.277363 l 5.524825,11.379693 c 0.214802,0.442425 0.494911,0.664252 0.775195,0.664252 0.280306,0 0.561808,-0.221815 0.776581,-0.664252 l 5.5276,-11.385241 c 0.164764,-0.118611 0.340419,-0.205971 0.529735,-0.271789 0.190065,0.06165 0.374785,0.152584 0.553317,0.269033 l 5.528983,11.388016 c 0.214802,0.442425 0.494904,0.664252 0.775192,0.664252 0.280306,0 0.560421,-0.221815 0.775194,-0.664252 l 6.025444,-12.408663 c 0.09701,-0.199834 0.17015,-0.42865 0.223286,-0.671188 0.225135,-0.499538 0.588158,-1.201415 1.012325,-1.605861 0.698724,-0.666238 2.297853,-1.225889 2.297853,-1.225889 v -0.06378 c 0.0191,-0.0085 0.03955,-0.01597 0.05824,-0.02505 L 76.231999,53.75475 c 0.442431,-0.214801 0.665643,-0.49352 0.665643,-0.773807 0,-0.280306 -0.223224,-0.560422 -0.665643,-0.775198 L 64.835667,46.671216 C 64.722912,46.51118 64.640029,46.34124 64.57634,46.15812 c 0.06309,-0.194542 0.156905,-0.385534 0.277363,-0.568569 l 11.379693,-5.524822 c 0.442428,-0.214801 0.664252,-0.493523 0.664252,-0.77381 0,-0.280306 -0.221815,-0.561809 -0.664252,-0.776582 L 64.848155,32.986744 c -0.118611,-0.164764 -0.205972,-0.340419 -0.27179,-0.529738 0.06165,-0.190034 0.152584,-0.374788 0.269034,-0.553317 l 11.388016,-5.52898 c 0.442427,-0.214802 0.664252,-0.494911 0.664252,-0.775198 0,-0.280306 -0.223224,-0.560421 -0.665643,-0.775194 L 63.823434,18.798873 C 63.567332,18.674533 63.266106,18.586232 62.945617,18.534004 62.439575,18.241047 61.823493,17.840049 61.46734,17.43708 60.851471,16.74026 60.215105,15.137846 60.215105,15.137846 h -0.0166 L 54.207644,2.7972073 C 53.992843,2.3547816 53.712743,2.1329501 53.432456,2.1329501 c -0.280306,0 -0.560425,0.2218214 -0.775198,0.6642572 L 47.12273,14.19354 c -0.160037,0.112761 -0.32998,0.197025 -0.5131,0.260705 -0.194542,-0.06309 -0.384149,-0.156905 -0.567185,-0.277344 L 40.517623,2.7972095 C 40.302822,2.3547841 40.02272,2.1329527 39.742432,2.1329527 c -0.280275,0 -0.561808,0.2218214 -0.776581,0.6642568 L 33.438254,14.182449 c -0.164764,0.118588 -0.340416,0.205964 -0.529735,0.271795 -0.190065,-0.06167 -0.374791,-0.152587 -0.55332,-0.269024 L 26.826219,2.7972054 C 26.61143,2.3547797 26.331308,2.1329483 26.051022,2.1329483 Z M 63.802574,32.407138 v 0.0014 l -0.01409,0.04299 0.0085,0.02505 c -0.01033,-0.0047 -0.02161,-0.0091 -0.03191,-0.01409 v -0.03883 c 0.01221,-0.0056 0.02536,-0.01096 0.03745,-0.0166 z m 0.0027,13.691411 -0.01659,0.0527 0.0056,0.01534 c -0.0097,-0.0047 -0.01941,-0.0094 -0.02912,-0.01409 v -0.03607 c 0.01346,-0.0059 0.02693,-0.0119 0.04024,-0.01785 z M 32.893248,63.27764 h 0.0056 c 0.01096,0.02536 0.02192,0.05026 0.03328,0.0749 l -0.05408,-0.01534 -0.01409,0.0041 c 0.01002,-0.02098 0.01973,-0.04218 0.02912,-0.06378 z m 13.690021,0 h 0.0056 c 0.01065,0.02442 0.02223,0.04828 0.03329,0.07211 l -0.04299,-0.01221 -0.0263,0.0069 c 0.01033,-0.02223 0.02067,-0.04406 0.03037,-0.06657 z"
             sodipodi:nodetypes="ccccscccscccccsccccssccccccscccccsccccsscccsccccscccccsccccsscccscccscccccscccccccccccccccccccccccccccccccccccc" />
          <path
             id="path2345"
             style="fill:#ffffff;fill-opacity:1;stroke:none;stroke-width:25.8844;stroke-linecap:round;stroke-linejoin:round;stroke-opacity:0.97992;paint-order:fill markers stroke"
             d="m 26.051013,2.1329395 c -0.280307,0 -0.560419,0.2218214 -0.775192,0.6642568 L 19.250381,15.20586 c -0.03632,0.07476 -0.06557,0.158085 -0.09569,0.239907 -0.272635,0.503967 -0.845653,1.512566 -1.345147,2.048236 -0.414097,0.444087 -1.181924,0.945319 -1.722347,1.271651 -0.218787,0.05195 -0.423681,0.120896 -0.606014,0.209384 L 3.0725302,25.000479 c -0.4424263,0.214801 -0.6656414,0.493523 -0.6656414,0.773807 0,0.280306 0.2232085,0.561805 0.6656414,0.776581 l 11.3963318,5.533142 c 0.112761,0.160036 0.195657,0.331364 0.259336,0.514487 -0.06309,0.194511 -0.156905,0.384143 -0.277353,0.567181 L 3.0711553,38.690499 c -0.4424257,0.214802 -0.6642565,0.493523 -0.6642565,0.773808 0,0.280306 0.2218152,0.561811 0.6642565,0.776581 l 11.3852337,5.528984 c 0.118611,0.164764 0.205962,0.339035 0.271808,0.528354 -0.06167,0.190034 -0.152587,0.376169 -0.26903,0.554698 L 3.0711553,52.38191 c -0.4424257,0.214802 -0.6642565,0.49352 -0.6642565,0.773808 0,0.280306 0.2232085,0.560421 0.6656414,0.775194 l 12.4086568,6.025441 c 0.41257,0.12556 0.597701,0.207062 0.863874,0.262106 0.564542,0.158158 1.265238,0.403385 1.664105,0.733597 0.820561,0.649608 0.857184,1.613332 1.241147,2.419879 l 6.02405,12.408666 c 0.214801,0.442425 0.49491,0.664256 0.775197,0.664256 0.280307,0 0.560415,-0.221815 0.775197,-0.664256 l 5.534541,-11.396329 c 0.160037,-0.112755 0.329974,-0.197016 0.513094,-0.260705 0.19451,0.06309 0.384146,0.156906 0.567181,0.277363 l 5.524825,11.379693 c 0.214802,0.442425 0.494911,0.664252 0.775195,0.664252 0.280306,0 0.561808,-0.221815 0.776581,-0.664252 l 5.5276,-11.385241 c 0.164764,-0.118611 0.340419,-0.205971 0.529735,-0.271789 0.190065,0.06165 0.374785,0.152584 0.553317,0.269033 l 5.528983,11.388016 c 0.214802,0.442425 0.494904,0.664252 0.775192,0.664252 0.280306,0 0.560421,-0.221815 0.775194,-0.664252 l 6.025444,-12.408663 c 0.09701,-0.199834 0.17015,-0.42865 0.223286,-0.671188 0.225135,-0.499538 0.588158,-1.201415 1.012325,-1.605861 0.698724,-0.666238 2.297853,-1.225889 2.297853,-1.225889 v -0.06378 c 0.0191,-0.0085 0.03955,-0.01597 0.05824,-0.02505 L 76.231999,53.75475 c 0.442431,-0.214801 0.665643,-0.49352 0.665643,-0.773807 0,-0.280306 -0.223224,-0.560422 -0.665643,-0.775198 L 64.835667,46.671216 C 64.722912,46.51118 64.640029,46.34124 64.57634,46.15812 c 0.06309,-0.194542 0.156905,-0.385534 0.277363,-0.568569 l 11.379693,-5.524822 c 0.442428,-0.214801 0.664252,-0.493523 0.664252,-0.77381 0,-0.280306 -0.221815,-0.561809 -0.664252,-0.776582 L 64.848155,32.986744 c -0.118611,-0.164764 -0.205972,-0.340419 -0.27179,-0.529738 0.06165,-0.190034 0.152584,-0.374788 0.269034,-0.553317 l 11.388016,-5.52898 c 0.442427,-0.214802 0.664252,-0.494911 0.664252,-0.775198 0,-0.280306 -0.223224,-0.560421 -0.665643,-0.775194 L 63.823434,18.798873 C 63.567332,18.674533 63.266106,18.586232 62.945617,18.534004 62.439575,18.241047 61.823493,17.840049 61.46734,17.43708 60.851471,16.74026 60.215105,15.137846 60.215105,15.137846 h -0.0166 L 54.207644,2.7972073 C 53.992843,2.3547816 53.712743,2.1329501 53.432456,2.1329501 c -0.280306,0 -0.560425,0.2218214 -0.775198,0.6642572 L 47.12273,14.19354 c -0.160037,0.112761 -0.32998,0.197025 -0.5131,0.260705 -0.194542,-0.06309 -0.384149,-0.156905 -0.567185,-0.277344 L 40.517623,2.7972095 C 40.302822,2.3547841 40.02272,2.1329527 39.742432,2.1329527 c -0.280275,0 -0.561808,0.2218214 -0.776581,0.6642568 L 33.438254,14.182449 c -0.164764,0.118588 -0.340416,0.205964 -0.529735,0.271795 -0.190065,-0.06167 -0.374791,-0.152587 -0.55332,-0.269024 L 26.826219,2.7972054 C 26.61143,2.3547797 26.331308,2.1329483 26.051022,2.1329483 Z M 63.802574,32.407138 v 0.0014 l -0.01409,0.04299 0.0085,0.02505 c -0.01033,-0.0047 -0.02161,-0.0091 -0.03191,-0.01409 v -0.03883 c 0.01221,-0.0056 0.02536,-0.01096 0.03745,-0.0166 z m 0.0027,13.691411 -0.01659,0.0527 0.0056,0.01534 c -0.0097,-0.0047 -0.01941,-0.0094 -0.02912,-0.01409 v -0.03607 c 0.01346,-0.0059 0.02693,-0.0119 0.04024,-0.01785 z M 32.893248,63.27764 h 0.0056 c 0.01096,0.02536 0.02192,0.05026 0.03328,0.0749 l -0.05408,-0.01534 -0.01409,0.0041 c 0.01002,-0.02098 0.01973,-0.04218 0.02912,-0.06378 z m 13.690021,0 h 0.0056 c 0.01065,0.02442 0.02223,0.04828 0.03329,0.07211 l -0.04299,-0.01221 -0.0263,0.0069 c 0.01033,-0.02223 0.02067,-0.04406 0.03037,-0.06657 z"
             sodipodi:nodetypes="ccccscccscccccsccccssccccccscccccsccccsscccsccccscccccsccccsscccscccscccccscccccccccccccccccccccccccccccccccccc" />
        </g>
        <g
           inkscape:label="Calque 1"
           id="g2349"
           style="fill:#ffffff;fill-opacity:1" />
      </g>
      <path
         id="path2353"
         style="fill:#000000;fill-opacity:1;stroke:none;stroke-width:8.81232;stroke-linecap:round;stroke-linejoin:round;stroke-opacity:0.97992;paint-order:fill markers stroke"
         d="m 15.511378,48.649617 c 0.0951,0 0.190117,-0.07624 0.262983,-0.227391 l 2.044234,-4.239223 c 0.0054,-0.01124 0.01062,-0.02268 0.0156,-0.03443 h 2.455007 c 0.810143,0 1.462346,-0.656764 1.462346,-1.472571 v -1.713203 c 0.0053,-0.0022 0.01074,-0.0042 0.01579,-0.0067 l 4.209794,-2.058528 c 0.1501,-0.07339 0.225812,-0.168707 0.225812,-0.264465 0,-0.09577 -0.07572,-0.191443 -0.225812,-0.264818 l -3.866339,-1.890807 c -0.03521,-0.05033 -0.06154,-0.103727 -0.08239,-0.160658 0.02069,-0.0592 0.04953,-0.116967 0.08573,-0.172839 l 3.863534,-1.888865 c 0.150101,-0.0734 0.225286,-0.169063 0.225286,-0.26482 0,-0.09576 -0.07572,-0.191444 -0.225813,-0.264819 l -4.209791,-2.058526 c -0.0051,-0.0025 -0.01048,-0.0049 -0.01579,-0.0073 v -3.120452 c 0,-0.815806 -0.652204,-1.47257 -1.462347,-1.47257 h -2.572298 l -1.961308,-4.06709 c -0.07288,-0.151151 -0.167538,-0.227393 -0.262632,-0.227393 -0.0951,0 -0.190114,0.07625 -0.262979,0.227393 l -1.877856,3.893369 c -0.04998,0.03545 -0.102826,0.06196 -0.159368,0.08298 -0.05879,-0.02083 -0.116152,-0.04989 -0.171637,-0.08633 l -1.875928,-3.890545 c -0.07288,-0.151151 -0.167713,-0.226863 -0.262804,-0.226863 -0.09509,0 -0.190116,0.07625 -0.26298,0.227394 l -1.9614855,4.06709 h -2.407323 c -0.810142,0 -1.462347,0.656764 -1.462347,1.47257 v 2.390453 c -0.0014,5.22e-4 -0.0074,0.0028 -0.0074,0.0028 v 0.0219 c -0.0065,0.0029 -0.01347,0.0054 -0.01982,0.0084 l -4.20978998,2.058527 c -0.150101,0.0734 -0.225812,0.16871 -0.225812,0.264467 0,0.09577 0.07572,0.191443 0.225812,0.264818 l 3.86635798,1.890837 c 0.03521,0.05032 0.06154,0.103724 0.0824,0.160656 -0.02069,0.0592 -0.04953,0.116967 -0.08573,0.172839 L 0.55075052,37.66377 c -0.150101,0.0734 -0.225286,0.169063 -0.225286,0.264819 0,0.09577 0.07572,0.191445 0.225813,0.264819 l 4.20983298,2.05853 c 0.0089,0.0043 0.01801,0.0085 0.02718,0.01253 v 2.411538 c 0,0.815806 0.652203,1.47257 1.462345,1.47257 h 2.307917 c 0.0017,0.0046 0.0054,0.01448 0.0054,0.01448 h 0.02174 c 0.0029,0.0065 0.0053,0.01374 0.0082,0.02013 l 2.0442755,4.23904 c 0.07288,0.151151 0.167538,0.227391 0.26263,0.227391 0.0951,0 0.190116,-0.07624 0.26298,-0.227391 l 1.877681,-3.89337 c 0.04997,-0.03546 0.103011,-0.06196 0.159542,-0.08298 0.0588,0.02083 0.116153,0.04989 0.171638,0.08633 l 1.875937,3.89055 c 0.07287,0.151151 0.167712,0.226861 0.262802,0.226861 z m 6.520514,-18.169765 c 0.0032,-0.0074 0.0065,-0.0146 0.0099,-0.02171 l -0.0047,0.0014 -0.0184,-0.0053 c 0.0037,0.0084 0.0076,0.01693 0.0114,0.0256 z" />
      <g
         id="g2363"
         transform="matrix(0.34903649,0,0,0.34987641,-0.60819183,44.595712)"
         style="fill:#ffffff;fill-opacity:1">
        <g
           id="g2359"
           inkscape:label="Calque 2"
           style="fill:#ffffff;fill-opacity:1">
          <path
             id="path2355"
             style="fill:#ffffff;fill-opacity:1;stroke:none;stroke-width:25.8844;stroke-linecap:round;stroke-linejoin:round;stroke-opacity:0.97992;paint-order:fill markers stroke"
             d="m 26.051013,2.1329395 c -0.280307,0 -0.560419,0.2218214 -0.775192,0.6642568 L 19.250381,15.20586 c -0.03632,0.07476 -0.06557,0.158085 -0.09569,0.239907 -0.272635,0.503967 -0.845653,1.512566 -1.345147,2.048236 -0.414097,0.444087 -1.181924,0.945319 -1.722347,1.271651 -0.218787,0.05195 -0.423681,0.120896 -0.606014,0.209384 L 3.0725302,25.000479 c -0.4424263,0.214801 -0.6656414,0.493523 -0.6656414,0.773807 0,0.280306 0.2232085,0.561805 0.6656414,0.776581 l 11.3963318,5.533142 c 0.112761,0.160036 0.195657,0.331364 0.259336,0.514487 -0.06309,0.194511 -0.156905,0.384143 -0.277353,0.567181 L 3.0711553,38.690499 c -0.4424257,0.214802 -0.6642565,0.493523 -0.6642565,0.773808 0,0.280306 0.2218152,0.561811 0.6642565,0.776581 l 11.3852337,5.528984 c 0.118611,0.164764 0.205962,0.339035 0.271808,0.528354 -0.06167,0.190034 -0.152587,0.376169 -0.26903,0.554698 L 3.0711553,52.38191 c -0.4424257,0.214802 -0.6642565,0.49352 -0.6642565,0.773808 0,0.280306 0.2232085,0.560421 0.6656414,0.775194 l 12.4086568,6.025441 c 0.41257,0.12556 0.597701,0.207062 0.863874,0.262106 0.564542,0.158158 1.265238,0.403385 1.664105,0.733597 0.820561,0.649608 0.857184,1.613332 1.241147,2.419879 l 6.02405,12.408666 c 0.214801,0.442425 0.49491,0.664256 0.775197,0.664256 0.280307,0 0.560415,-0.221815 0.775197,-0.664256 l 5.534541,-11.396329 c 0.160037,-0.112755 0.329974,-0.197016 0.513094,-0.260705 0.19451,0.06309 0.384146,0.156906 0.567181,0.277363 l 5.524825,11.379693 c 0.214802,0.442425 0.494911,0.664252 0.775195,0.664252 0.280306,0 0.561808,-0.221815 0.776581,-0.664252 l 5.5276,-11.385241 c 0.164764,-0.118611 0.340419,-0.205971 0.529735,-0.271789 0.190065,0.06165 0.374785,0.152584 0.553317,0.269033 l 5.528983,11.388016 c 0.214802,0.442425 0.494904,0.664252 0.775192,0.664252 0.280306,0 0.560421,-0.221815 0.775194,-0.664252 l 6.025444,-12.408663 c 0.09701,-0.199834 0.17015,-0.42865 0.223286,-0.671188 0.225135,-0.499538 0.588158,-1.201415 1.012325,-1.605861 0.698724,-0.666238 2.297853,-1.225889 2.297853,-1.225889 v -0.06378 c 0.0191,-0.0085 0.03955,-0.01597 0.05824,-0.02505 L 76.231999,53.75475 c 0.442431,-0.214801 0.665643,-0.49352 0.665643,-0.773807 0,-0.280306 -0.223224,-0.560422 -0.665643,-0.775198 L 64.835667,46.671216 C 64.722912,46.51118 64.640029,46.34124 64.57634,46.15812 c 0.06309,-0.194542 0.156905,-0.385534 0.277363,-0.568569 l 11.379693,-5.524822 c 0.442428,-0.214801 0.664252,-0.493523 0.664252,-0.77381 0,-0.280306 -0.221815,-0.561809 -0.664252,-0.776582 L 64.848155,32.986744 c -0.118611,-0.164764 -0.205972,-0.340419 -0.27179,-0.529738 0.06165,-0.190034 0.152584,-0.374788 0.269034,-0.553317 l 11.388016,-5.52898 c 0.442427,-0.214802 0.664252,-0.494911 0.664252,-0.775198 0,-0.280306 -0.223224,-0.560421 -0.665643,-0.775194 L 63.823434,18.798873 C 63.567332,18.674533 63.266106,18.586232 62.945617,18.534004 62.439575,18.241047 61.823493,17.840049 61.46734,17.43708 60.851471,16.74026 60.215105,15.137846 60.215105,15.137846 h -0.0166 L 54.207644,2.7972073 C 53.992843,2.3547816 53.712743,2.1329501 53.432456,2.1329501 c -0.280306,0 -0.560425,0.2218214 -0.775198,0.6642572 L 47.12273,14.19354 c -0.160037,0.112761 -0.32998,0.197025 -0.5131,0.260705 -0.194542,-0.06309 -0.384149,-0.156905 -0.567185,-0.277344 L 40.517623,2.7972095 C 40.302822,2.3547841 40.02272,2.1329527 39.742432,2.1329527 c -0.280275,0 -0.561808,0.2218214 -0.776581,0.6642568 L 33.438254,14.182449 c -0.164764,0.118588 -0.340416,0.205964 -0.529735,0.271795 -0.190065,-0.06167 -0.374791,-0.152587 -0.55332,-0.269024 L 26.826219,2.7972054 C 26.61143,2.3547797 26.331308,2.1329483 26.051022,2.1329483 Z M 63.802574,32.407138 v 0.0014 l -0.01409,0.04299 0.0085,0.02505 c -0.01033,-0.0047 -0.02161,-0.0091 -0.03191,-0.01409 v -0.03883 c 0.01221,-0.0056 0.02536,-0.01096 0.03745,-0.0166 z m 0.0027,13.691411 -0.01659,0.0527 0.0056,0.01534 c -0.0097,-0.0047 -0.01941,-0.0094 -0.02912,-0.01409 v -0.03607 c 0.01346,-0.0059 0.02693,-0.0119 0.04024,-0.01785 z M 32.893248,63.27764 h 0.0056 c 0.01096,0.02536 0.02192,0.05026 0.03328,0.0749 l -0.05408,-0.01534 -0.01409,0.0041 c 0.01002,-0.02098 0.01973,-0.04218 0.02912,-0.06378 z m 13.690021,0 h 0.0056 c 0.01065,0.02442 0.02223,0.04828 0.03329,0.07211 l -0.04299,-0.01221 -0.0263,0.0069 c 0.01033,-0.02223 0.02067,-0.04406 0.03037,-0.06657 z"
             sodipodi:nodetypes="ccccscccscccccsccccssccccccscccccsccccsscccsccccscccccsccccsscccscccscccccscccccccccccccccccccccccccccccccccccc" />
          <path
             id="path2357"
             style="fill:#ffffff;fill-opacity:1;stroke:none;stroke-width:25.8844;stroke-linecap:round;stroke-linejoin:round;stroke-opacity:0.97992;paint-order:fill markers stroke"
             d="m 26.051013,2.1329395 c -0.280307,0 -0.560419,0.2218214 -0.775192,0.6642568 L 19.250381,15.20586 c -0.03632,0.07476 -0.06557,0.158085 -0.09569,0.239907 -0.272635,0.503967 -0.845653,1.512566 -1.345147,2.048236 -0.414097,0.444087 -1.181924,0.945319 -1.722347,1.271651 -0.218787,0.05195 -0.423681,0.120896 -0.606014,0.209384 L 3.0725302,25.000479 c -0.4424263,0.214801 -0.6656414,0.493523 -0.6656414,0.773807 0,0.280306 0.2232085,0.561805 0.6656414,0.776581 l 11.3963318,5.533142 c 0.112761,0.160036 0.195657,0.331364 0.259336,0.514487 -0.06309,0.194511 -0.156905,0.384143 -0.277353,0.567181 L 3.0711553,38.690499 c -0.4424257,0.214802 -0.6642565,0.493523 -0.6642565,0.773808 0,0.280306 0.2218152,0.561811 0.6642565,0.776581 l 11.3852337,5.528984 c 0.118611,0.164764 0.205962,0.339035 0.271808,0.528354 -0.06167,0.190034 -0.152587,0.376169 -0.26903,0.554698 L 3.0711553,52.38191 c -0.4424257,0.214802 -0.6642565,0.49352 -0.6642565,0.773808 0,0.280306 0.2232085,0.560421 0.6656414,0.775194 l 12.4086568,6.025441 c 0.41257,0.12556 0.597701,0.207062 0.863874,0.262106 0.564542,0.158158 1.265238,0.403385 1.664105,0.733597 0.820561,0.649608 0.857184,1.613332 1.241147,2.419879 l 6.02405,12.408666 c 0.214801,0.442425 0.49491,0.664256 0.775197,0.664256 0.280307,0 0.560415,-0.221815 0.775197,-0.664256 l 5.534541,-11.396329 c 0.160037,-0.112755 0.329974,-0.197016 0.513094,-0.260705 0.19451,0.06309 0.384146,0.156906 0.567181,0.277363 l 5.524825,11.379693 c 0.214802,0.442425 0.494911,0.664252 0.775195,0.664252 0.280306,0 0.561808,-0.221815 0.776581,-0.664252 l 5.5276,-11.385241 c 0.164764,-0.118611 0.340419,-0.205971 0.529735,-0.271789 0.190065,0.06165 0.374785,0.152584 0.553317,0.269033 l 5.528983,11.388016 c 0.214802,0.442425 0.494904,0.664252 0.775192,0.664252 0.280306,0 0.560421,-0.221815 0.775194,-0.664252 l 6.025444,-12.408663 c 0.09701,-0.199834 0.17015,-0.42865 0.223286,-0.671188 0.225135,-0.499538 0.588158,-1.201415 1.012325,-1.605861 0.698724,-0.666238 2.297853,-1.225889 2.297853,-1.225889 v -0.06378 c 0.0191,-0.0085 0.03955,-0.01597 0.05824,-0.02505 L 76.231999,53.75475 c 0.442431,-0.214801 0.665643,-0.49352 0.665643,-0.773807 0,-0.280306 -0.223224,-0.560422 -0.665643,-0.775198 L 64.835667,46.671216 C 64.722912,46.51118 64.640029,46.34124 64.57634,46.15812 c 0.06309,-0.194542 0.156905,-0.385534 0.277363,-0.568569 l 11.379693,-5.524822 c 0.442428,-0.214801 0.664252,-0.493523 0.664252,-0.77381 0,-0.280306 -0.221815,-0.561809 -0.664252,-0.776582 L 64.848155,32.986744 c -0.118611,-0.164764 -0.205972,-0.340419 -0.27179,-0.529738 0.06165,-0.190034 0.152584,-0.374788 0.269034,-0.553317 l 11.388016,-5.52898 c 0.442427,-0.214802 0.664252,-0.494911 0.664252,-0.775198 0,-0.280306 -0.223224,-0.560421 -0.665643,-0.775194 L 63.823434,18.798873 C 63.567332,18.674533 63.266106,18.586232 62.945617,18.534004 62.439575,18.241047 61.823493,17.840049 61.46734,17.43708 60.851471,16.74026 60.215105,15.137846 60.215105,15.137846 h -0.0166 L 54.207644,2.7972073 C 53.992843,2.3547816 53.712743,2.1329501 53.432456,2.1329501 c -0.280306,0 -0.560425,0.2218214 -0.775198,0.6642572 L 47.12273,14.19354 c -0.160037,0.112761 -0.32998,0.197025 -0.5131,0.260705 -0.194542,-0.06309 -0.384149,-0.156905 -0.567185,-0.277344 L 40.517623,2.7972095 C 40.302822,2.3547841 40.02272,2.1329527 39.742432,2.1329527 c -0.280275,0 -0.561808,0.2218214 -0.776581,0.6642568 L 33.438254,14.182449 c -0.164764,0.118588 -0.340416,0.205964 -0.529735,0.271795 -0.190065,-0.06167 -0.374791,-0.152587 -0.55332,-0.269024 L 26.826219,2.7972054 C 26.61143,2.3547797 26.331308,2.1329483 26.051022,2.1329483 Z M 63.802574,32.407138 v 0.0014 l -0.01409,0.04299 0.0085,0.02505 c -0.01033,-0.0047 -0.02161,-0.0091 -0.03191,-0.01409 v -0.03883 c 0.01221,-0.0056 0.02536,-0.01096 0.03745,-0.0166 z m 0.0027,13.691411 -0.01659,0.0527 0.0056,0.01534 c -0.0097,-0.0047 -0.01941,-0.0094 -0.02912,-0.01409 v -0.03607 c 0.01346,-0.0059 0.02693,-0.0119 0.04024,-0.01785 z M 32.893248,63.27764 h 0.0056 c 0.01096,0.02536 0.02192,0.05026 0.03328,0.0749 l -0.05408,-0.01534 -0.01409,0.0041 c 0.01002,-0.02098 0.01973,-0.04218 0.02912,-0.06378 z m 13.690021,0 h 0.0056 c 0.01065,0.02442 0.02223,0.04828 0.03329,0.07211 l -0.04299,-0.01221 -0.0263,0.0069 c 0.01033,-0.02223 0.02067,-0.04406 0.03037,-0.06657 z"
             sodipodi:nodetypes="ccccscccscccccsccccssccccccscccccsccccsscccsccccscccccsccccsscccscccscccccscccccccccccccccccccccccccccccccccccc" />
        </g>
        <g
           inkscape:label="Calque 1"
           id="g2361"
           style="fill:#ffffff;fill-opacity:1" />
      </g>
      <path
         id="path2365"
         style="fill:#000000;fill-opacity:1;stroke:none;stroke-width:8.81232;stroke-linecap:round;stroke-linejoin:round;stroke-opacity:0.97992;paint-order:fill markers stroke"
         d="m 33.597151,45.933132 c -0.0951,0 -0.190117,0.07624 -0.262983,0.227391 l -2.044234,4.239223 c -0.0054,0.01124 -0.01062,0.02268 -0.0156,0.03443 h -2.455007 c -0.810143,0 -1.462346,0.656764 -1.462346,1.472571 v 1.713203 c -0.0053,0.0022 -0.01074,0.0042 -0.01579,0.0067 l -4.209794,2.058528 c -0.1501,0.07339 -0.225812,0.168707 -0.225812,0.264465 0,0.09577 0.07572,0.191443 0.225812,0.264818 l 3.866339,1.890807 c 0.03521,0.05033 0.06154,0.103727 0.08239,0.160658 -0.02069,0.0592 -0.04953,0.116967 -0.08573,0.172839 l -3.863534,1.888865 c -0.150101,0.0734 -0.225286,0.169063 -0.225286,0.26482 0,0.09576 0.07572,0.191444 0.225813,0.264819 l 4.209791,2.058526 c 0.0051,0.0025 0.01048,0.0049 0.01579,0.0073 v 3.120452 c 0,0.815806 0.652204,1.47257 1.462347,1.47257 h 2.572298 l 1.961308,4.06709 c 0.07288,0.151151 0.167538,0.227393 0.262632,0.227393 0.0951,0 0.190114,-0.07625 0.262979,-0.227393 l 1.877856,-3.893369 c 0.04998,-0.03545 0.102826,-0.06196 0.159368,-0.08298 0.05879,0.02083 0.116152,0.04989 0.171637,0.08633 l 1.875928,3.890545 c 0.07288,0.151151 0.167713,0.226863 0.262804,0.226863 0.09509,0 0.190116,-0.07625 0.26298,-0.227394 l 1.961485,-4.06709 h 2.407323 c 0.810142,0 1.462347,-0.656764 1.462347,-1.47257 v -2.390453 c 0.0014,-5.22e-4 0.0074,-0.0028 0.0074,-0.0028 v -0.0219 c 0.0065,-0.0029 0.01347,-0.0054 0.01982,-0.0084 l 4.20979,-2.058527 c 0.150101,-0.0734 0.225812,-0.16871 0.225812,-0.264467 0,-0.09577 -0.07572,-0.191443 -0.225812,-0.264818 L 44.690914,59.14134 c -0.03521,-0.05032 -0.06154,-0.103724 -0.0824,-0.160656 0.02069,-0.0592 0.04953,-0.116967 0.08573,-0.172839 l 3.863534,-1.888866 c 0.150101,-0.0734 0.225286,-0.169063 0.225286,-0.264819 0,-0.09577 -0.07572,-0.191445 -0.225813,-0.264819 l -4.209833,-2.05853 c -0.0089,-0.0043 -0.01801,-0.0085 -0.02718,-0.01253 v -2.411538 c 0,-0.815806 -0.652203,-1.47257 -1.462345,-1.47257 h -2.307917 c -0.0017,-0.0046 -0.0054,-0.01448 -0.0054,-0.01448 h -0.02174 c -0.0029,-0.0065 -0.0053,-0.01374 -0.0082,-0.02013 l -2.044275,-4.23904 c -0.07288,-0.151151 -0.167538,-0.227391 -0.26263,-0.227391 -0.0951,0 -0.190116,0.07624 -0.26298,0.227391 l -1.877681,3.89337 c -0.04997,0.03546 -0.103011,0.06196 -0.159542,0.08298 -0.0588,-0.02083 -0.116153,-0.04989 -0.171638,-0.08633 l -1.875937,-3.89055 c -0.07287,-0.151151 -0.167712,-0.226861 -0.262802,-0.226861 z m -6.520514,18.169765 c -0.0032,0.0074 -0.0065,0.0146 -0.0099,0.02171 l 0.0047,-0.0014 0.0184,0.0053 c -0.0037,-0.0084 -0.0076,-0.01693 -0.0114,-0.0256 z" />
      <g
         id="g2375"
         transform="matrix(0.34903649,0,0,0.34987641,44.767854,-0.19911741)">
        <g
           id="g2371"
           inkscape:label="Calque 2">
          <path
             id="path2367"
             style="fill:#000000;fill-opacity:1;stroke:none;stroke-width:25.8844;stroke-linecap:round;stroke-linejoin:round;stroke-opacity:0.97992;paint-order:fill markers stroke"
             d="m 26.051013,2.1329395 c -0.280307,0 -0.560419,0.2218214 -0.775192,0.6642568 L 19.250381,15.20586 c -0.03632,0.07476 -0.06557,0.158085 -0.09569,0.239907 -0.272635,0.503967 -0.845653,1.512566 -1.345147,2.048236 -0.414097,0.444087 -1.181924,0.945319 -1.722347,1.271651 -0.218787,0.05195 -0.423681,0.120896 -0.606014,0.209384 L 3.0725302,25.000479 c -0.4424263,0.214801 -0.6656414,0.493523 -0.6656414,0.773807 0,0.280306 0.2232085,0.561805 0.6656414,0.776581 l 11.3963318,5.533142 c 0.112761,0.160036 0.195657,0.331364 0.259336,0.514487 -0.06309,0.194511 -0.156905,0.384143 -0.277353,0.567181 L 3.0711553,38.690499 c -0.4424257,0.214802 -0.6642565,0.493523 -0.6642565,0.773808 0,0.280306 0.2218152,0.561811 0.6642565,0.776581 l 11.3852337,5.528984 c 0.118611,0.164764 0.205962,0.339035 0.271808,0.528354 -0.06167,0.190034 -0.152587,0.376169 -0.26903,0.554698 L 3.0711553,52.38191 c -0.4424257,0.214802 -0.6642565,0.49352 -0.6642565,0.773808 0,0.280306 0.2232085,0.560421 0.6656414,0.775194 l 12.4086568,6.025441 c 0.41257,0.12556 0.597701,0.207062 0.863874,0.262106 0.564542,0.158158 1.265238,0.403385 1.664105,0.733597 0.820561,0.649608 0.857184,1.613332 1.241147,2.419879 l 6.02405,12.408666 c 0.214801,0.442425 0.49491,0.664256 0.775197,0.664256 0.280307,0 0.560415,-0.221815 0.775197,-0.664256 l 5.534541,-11.396329 c 0.160037,-0.112755 0.329974,-0.197016 0.513094,-0.260705 0.19451,0.06309 0.384146,0.156906 0.567181,0.277363 l 5.524825,11.379693 c 0.214802,0.442425 0.494911,0.664252 0.775195,0.664252 0.280306,0 0.561808,-0.221815 0.776581,-0.664252 l 5.5276,-11.385241 c 0.164764,-0.118611 0.340419,-0.205971 0.529735,-0.271789 0.190065,0.06165 0.374785,0.152584 0.553317,0.269033 l 5.528983,11.388016 c 0.214802,0.442425 0.494904,0.664252 0.775192,0.664252 0.280306,0 0.560421,-0.221815 0.775194,-0.664252 l 6.025444,-12.408663 c 0.09701,-0.199834 0.17015,-0.42865 0.223286,-0.671188 0.225135,-0.499538 0.588158,-1.201415 1.012325,-1.605861 0.698724,-0.666238 2.297853,-1.225889 2.297853,-1.225889 v -0.06378 c 0.0191,-0.0085 0.03955,-0.01597 0.05824,-0.02505 L 76.231999,53.75475 c 0.442431,-0.214801 0.665643,-0.49352 0.665643,-0.773807 0,-0.280306 -0.223224,-0.560422 -0.665643,-0.775198 L 64.835667,46.671216 C 64.722912,46.51118 64.640029,46.34124 64.57634,46.15812 c 0.06309,-0.194542 0.156905,-0.385534 0.277363,-0.568569 l 11.379693,-5.524822 c 0.442428,-0.214801 0.664252,-0.493523 0.664252,-0.77381 0,-0.280306 -0.221815,-0.561809 -0.664252,-0.776582 L 64.848155,32.986744 c -0.118611,-0.164764 -0.205972,-0.340419 -0.27179,-0.529738 0.06165,-0.190034 0.152584,-0.374788 0.269034,-0.553317 l 11.388016,-5.52898 c 0.442427,-0.214802 0.664252,-0.494911 0.664252,-0.775198 0,-0.280306 -0.223224,-0.560421 -0.665643,-0.775194 L 63.823434,18.798873 C 63.567332,18.674533 63.266106,18.586232 62.945617,18.534004 62.439575,18.241047 61.823493,17.840049 61.46734,17.43708 60.851471,16.74026 60.215105,15.137846 60.215105,15.137846 h -0.0166 L 54.207644,2.7972073 C 53.992843,2.3547816 53.712743,2.1329501 53.432456,2.1329501 c -0.280306,0 -0.560425,0.2218214 -0.775198,0.6642572 L 47.12273,14.19354 c -0.160037,0.112761 -0.32998,0.197025 -0.5131,0.260705 -0.194542,-0.06309 -0.384149,-0.156905 -0.567185,-0.277344 L 40.517623,2.7972095 C 40.302822,2.3547841 40.02272,2.1329527 39.742432,2.1329527 c -0.280275,0 -0.561808,0.2218214 -0.776581,0.6642568 L 33.438254,14.182449 c -0.164764,0.118588 -0.340416,0.205964 -0.529735,0.271795 -0.190065,-0.06167 -0.374791,-0.152587 -0.55332,-0.269024 L 26.826219,2.7972054 C 26.61143,2.3547797 26.331308,2.1329483 26.051022,2.1329483 Z M 63.802574,32.407138 v 0.0014 l -0.01409,0.04299 0.0085,0.02505 c -0.01033,-0.0047 -0.02161,-0.0091 -0.03191,-0.01409 v -0.03883 c 0.01221,-0.0056 0.02536,-0.01096 0.03745,-0.0166 z m 0.0027,13.691411 -0.01659,0.0527 0.0056,0.01534 c -0.0097,-0.0047 -0.01941,-0.0094 -0.02912,-0.01409 v -0.03607 c 0.01346,-0.0059 0.02693,-0.0119 0.04024,-0.01785 z M 32.893248,63.27764 h 0.0056 c 0.01096,0.02536 0.02192,0.05026 0.03328,0.0749 l -0.05408,-0.01534 -0.01409,0.0041 c 0.01002,-0.02098 0.01973,-0.04218 0.02912,-0.06378 z m 13.690021,0 h 0.0056 c 0.01065,0.02442 0.02223,0.04828 0.03329,0.07211 l -0.04299,-0.01221 -0.0263,0.0069 c 0.01033,-0.02223 0.02067,-0.04406 0.03037,-0.06657 z"
             sodipodi:nodetypes="ccccscccscccccsccccssccccccscccccsccccsscccsccccscccccsccccsscccscccscccccscccccccccccccccccccccccccccccccccccc" />
          <path
             id="path2369"
             style="fill:#000000;fill-opacity:1;stroke:none;stroke-width:25.8844;stroke-linecap:round;stroke-linejoin:round;stroke-opacity:0.97992;paint-order:fill markers stroke"
             d="m 26.051013,2.1329395 c -0.280307,0 -0.560419,0.2218214 -0.775192,0.6642568 L 19.250381,15.20586 c -0.03632,0.07476 -0.06557,0.158085 -0.09569,0.239907 -0.272635,0.503967 -0.845653,1.512566 -1.345147,2.048236 -0.414097,0.444087 -1.181924,0.945319 -1.722347,1.271651 -0.218787,0.05195 -0.423681,0.120896 -0.606014,0.209384 L 3.0725302,25.000479 c -0.4424263,0.214801 -0.6656414,0.493523 -0.6656414,0.773807 0,0.280306 0.2232085,0.561805 0.6656414,0.776581 l 11.3963318,5.533142 c 0.112761,0.160036 0.195657,0.331364 0.259336,0.514487 -0.06309,0.194511 -0.156905,0.384143 -0.277353,0.567181 L 3.0711553,38.690499 c -0.4424257,0.214802 -0.6642565,0.493523 -0.6642565,0.773808 0,0.280306 0.2218152,0.561811 0.6642565,0.776581 l 11.3852337,5.528984 c 0.118611,0.164764 0.205962,0.339035 0.271808,0.528354 -0.06167,0.190034 -0.152587,0.376169 -0.26903,0.554698 L 3.0711553,52.38191 c -0.4424257,0.214802 -0.6642565,0.49352 -0.6642565,0.773808 0,0.280306 0.2232085,0.560421 0.6656414,0.775194 l 12.4086568,6.025441 c 0.41257,0.12556 0.597701,0.207062 0.863874,0.262106 0.564542,0.158158 1.265238,0.403385 1.664105,0.733597 0.820561,0.649608 0.857184,1.613332 1.241147,2.419879 l 6.02405,12.408666 c 0.214801,0.442425 0.49491,0.664256 0.775197,0.664256 0.280307,0 0.560415,-0.221815 0.775197,-0.664256 l 5.534541,-11.396329 c 0.160037,-0.112755 0.329974,-0.197016 0.513094,-0.260705 0.19451,0.06309 0.384146,0.156906 0.567181,0.277363 l 5.524825,11.379693 c 0.214802,0.442425 0.494911,0.664252 0.775195,0.664252 0.280306,0 0.561808,-0.221815 0.776581,-0.664252 l 5.5276,-11.385241 c 0.164764,-0.118611 0.340419,-0.205971 0.529735,-0.271789 0.190065,0.06165 0.374785,0.152584 0.553317,0.269033 l 5.528983,11.388016 c 0.214802,0.442425 0.494904,0.664252 0.775192,0.664252 0.280306,0 0.560421,-0.221815 0.775194,-0.664252 l 6.025444,-12.408663 c 0.09701,-0.199834 0.17015,-0.42865 0.223286,-0.671188 0.225135,-0.499538 0.588158,-1.201415 1.012325,-1.605861 0.698724,-0.666238 2.297853,-1.225889 2.297853,-1.225889 v -0.06378 c 0.0191,-0.0085 0.03955,-0.01597 0.05824,-0.02505 L 76.231999,53.75475 c 0.442431,-0.214801 0.665643,-0.49352 0.665643,-0.773807 0,-0.280306 -0.223224,-0.560422 -0.665643,-0.775198 L 64.835667,46.671216 C 64.722912,46.51118 64.640029,46.34124 64.57634,46.15812 c 0.06309,-0.194542 0.156905,-0.385534 0.277363,-0.568569 l 11.379693,-5.524822 c 0.442428,-0.214801 0.664252,-0.493523 0.664252,-0.77381 0,-0.280306 -0.221815,-0.561809 -0.664252,-0.776582 L 64.848155,32.986744 c -0.118611,-0.164764 -0.205972,-0.340419 -0.27179,-0.529738 0.06165,-0.190034 0.152584,-0.374788 0.269034,-0.553317 l 11.388016,-5.52898 c 0.442427,-0.214802 0.664252,-0.494911 0.664252,-0.775198 0,-0.280306 -0.223224,-0.560421 -0.665643,-0.775194 L 63.823434,18.798873 C 63.567332,18.674533 63.266106,18.586232 62.945617,18.534004 62.439575,18.241047 61.823493,17.840049 61.46734,17.43708 60.851471,16.74026 60.215105,15.137846 60.215105,15.137846 h -0.0166 L 54.207644,2.7972073 C 53.992843,2.3547816 53.712743,2.1329501 53.432456,2.1329501 c -0.280306,0 -0.560425,0.2218214 -0.775198,0.6642572 L 47.12273,14.19354 c -0.160037,0.112761 -0.32998,0.197025 -0.5131,0.260705 -0.194542,-0.06309 -0.384149,-0.156905 -0.567185,-0.277344 L 40.517623,2.7972095 C 40.302822,2.3547841 40.02272,2.1329527 39.742432,2.1329527 c -0.280275,0 -0.561808,0.2218214 -0.776581,0.6642568 L 33.438254,14.182449 c -0.164764,0.118588 -0.340416,0.205964 -0.529735,0.271795 -0.190065,-0.06167 -0.374791,-0.152587 -0.55332,-0.269024 L 26.826219,2.7972054 C 26.61143,2.3547797 26.331308,2.1329483 26.051022,2.1329483 Z M 63.802574,32.407138 v 0.0014 l -0.01409,0.04299 0.0085,0.02505 c -0.01033,-0.0047 -0.02161,-0.0091 -0.03191,-0.01409 v -0.03883 c 0.01221,-0.0056 0.02536,-0.01096 0.03745,-0.0166 z m 0.0027,13.691411 -0.01659,0.0527 0.0056,0.01534 c -0.0097,-0.0047 -0.01941,-0.0094 -0.02912,-0.01409 v -0.03607 c 0.01346,-0.0059 0.02693,-0.0119 0.04024,-0.01785 z M 32.893248,63.27764 h 0.0056 c 0.01096,0.02536 0.02192,0.05026 0.03328,0.0749 l -0.05408,-0.01534 -0.01409,0.0041 c 0.01002,-0.02098 0.01973,-0.04218 0.02912,-0.06378 z m 13.690021,0 h 0.0056 c 0.01065,0.02442 0.02223,0.04828 0.03329,0.07211 l -0.04299,-0.01221 -0.0263,0.0069 c 0.01033,-0.02223 0.02067,-0.04406 0.03037,-0.06657 z"
             sodipodi:nodetypes="ccccscccscccccsccccssccccccscccccsccccsscccsccccscccccsccccsscccscccscccccscccccccccccccccccccccccccccccccccccc" />
        </g>
        <g
           inkscape:label="Calque 1"
           id="g2373" />
      </g>
      <path
         id="path2377"
         style="fill:#000000;fill-opacity:1;stroke:none;stroke-width:8.81232;stroke-linecap:round;stroke-linejoin:round;stroke-opacity:0.97992;paint-order:fill markers stroke"
         d="m 60.926172,49.178784 c 0.0951,0 0.190117,-0.07624 0.262983,-0.227391 l 2.044234,-4.239223 c 0.0054,-0.01124 0.01062,-0.02268 0.0156,-0.03443 h 2.455007 c 0.810143,0 1.462346,-0.656764 1.462346,-1.472571 v -1.713203 c 0.0053,-0.0022 0.01074,-0.0042 0.01579,-0.0067 l 4.209794,-2.058528 c 0.1501,-0.07339 0.225812,-0.168707 0.225812,-0.264465 0,-0.09577 -0.07572,-0.191443 -0.225812,-0.264818 l -3.866339,-1.890807 c -0.03521,-0.05033 -0.06154,-0.103727 -0.08239,-0.160658 0.02069,-0.0592 0.04953,-0.116967 0.08573,-0.172839 l 3.863534,-1.888865 c 0.150101,-0.0734 0.225286,-0.169063 0.225286,-0.26482 0,-0.09576 -0.07572,-0.191444 -0.225813,-0.264819 l -4.209791,-2.058526 c -0.0051,-0.0025 -0.01048,-0.0049 -0.01579,-0.0073 v -3.120452 c 0,-0.815806 -0.652204,-1.47257 -1.462347,-1.47257 H 63.131708 L 61.1704,23.528709 c -0.07288,-0.151151 -0.167538,-0.227393 -0.262632,-0.227393 -0.0951,0 -0.190114,0.07625 -0.262979,0.227393 l -1.877856,3.893369 c -0.04998,0.03545 -0.102826,0.06196 -0.159368,0.08298 -0.05879,-0.02083 -0.116152,-0.04989 -0.171637,-0.08633 L 56.56,23.528183 c -0.07288,-0.151151 -0.167713,-0.226863 -0.262804,-0.226863 -0.09509,0 -0.190116,0.07625 -0.26298,0.227394 l -1.961486,4.06709 h -2.407323 c -0.810142,0 -1.462347,0.656764 -1.462347,1.47257 v 2.390453 c -0.0014,5.22e-4 -0.0074,0.0028 -0.0074,0.0028 v 0.0219 c -0.0065,0.0029 -0.01347,0.0054 -0.01982,0.0084 l -4.20979,2.058527 c -0.150101,0.0734 -0.225812,0.16871 -0.225812,0.264467 0,0.09577 0.07572,0.191443 0.225812,0.264818 l 3.866358,1.890837 c 0.03521,0.05032 0.06154,0.103724 0.0824,0.160656 -0.02069,0.0592 -0.04953,0.116967 -0.08573,0.172839 l -3.863534,1.888866 c -0.150101,0.0734 -0.225286,0.169063 -0.225286,0.264819 0,0.09577 0.07572,0.191445 0.225813,0.264819 l 4.209833,2.05853 c 0.0089,0.0043 0.01801,0.0085 0.02718,0.01253 v 2.411538 c 0,0.815806 0.652203,1.47257 1.462345,1.47257 h 2.307917 c 0.0017,0.0046 0.0054,0.01448 0.0054,0.01448 h 0.02174 c 0.0029,0.0065 0.0053,0.01374 0.0082,0.02013 l 2.044276,4.23904 c 0.07288,0.151151 0.167538,0.227391 0.26263,0.227391 0.0951,0 0.190116,-0.07624 0.26298,-0.227391 l 1.877681,-3.89337 c 0.04997,-0.03546 0.103011,-0.06196 0.159542,-0.08298 0.0588,0.02083 0.116153,0.04989 0.171638,0.08633 l 1.875937,3.89055 c 0.07287,0.151151 0.167712,0.226861 0.262802,0.226861 z m 6.520514,-18.169765 c 0.0032,-0.0074 0.0065,-0.0146 0.0099,-0.02171 l -0.0047,0.0014 -0.0184,-0.0053 c 0.0037,0.0084 0.0076,0.01693 0.0114,0.0256 z" />
      <g
         id="g2387"
         transform="matrix(0.34903649,0,0,0.34987641,44.806601,45.124879)"
         style="fill:#ffffff;fill-opacity:1">
        <g
           id="g2383"
           inkscape:label="Calque 2"
           style="fill:#ffffff;fill-opacity:1">
          <path
             id="path2379"
             style="fill:#ffffff;fill-opacity:1;stroke:none;stroke-width:25.8844;stroke-linecap:round;stroke-linejoin:round;stroke-opacity:0.97992;paint-order:fill markers stroke"
             d="m 26.051013,2.1329395 c -0.280307,0 -0.560419,0.2218214 -0.775192,0.6642568 L 19.250381,15.20586 c -0.03632,0.07476 -0.06557,0.158085 -0.09569,0.239907 -0.272635,0.503967 -0.845653,1.512566 -1.345147,2.048236 -0.414097,0.444087 -1.181924,0.945319 -1.722347,1.271651 -0.218787,0.05195 -0.423681,0.120896 -0.606014,0.209384 L 3.0725302,25.000479 c -0.4424263,0.214801 -0.6656414,0.493523 -0.6656414,0.773807 0,0.280306 0.2232085,0.561805 0.6656414,0.776581 l 11.3963318,5.533142 c 0.112761,0.160036 0.195657,0.331364 0.259336,0.514487 -0.06309,0.194511 -0.156905,0.384143 -0.277353,0.567181 L 3.0711553,38.690499 c -0.4424257,0.214802 -0.6642565,0.493523 -0.6642565,0.773808 0,0.280306 0.2218152,0.561811 0.6642565,0.776581 l 11.3852337,5.528984 c 0.118611,0.164764 0.205962,0.339035 0.271808,0.528354 -0.06167,0.190034 -0.152587,0.376169 -0.26903,0.554698 L 3.0711553,52.38191 c -0.4424257,0.214802 -0.6642565,0.49352 -0.6642565,0.773808 0,0.280306 0.2232085,0.560421 0.6656414,0.775194 l 12.4086568,6.025441 c 0.41257,0.12556 0.597701,0.207062 0.863874,0.262106 0.564542,0.158158 1.265238,0.403385 1.664105,0.733597 0.820561,0.649608 0.857184,1.613332 1.241147,2.419879 l 6.02405,12.408666 c 0.214801,0.442425 0.49491,0.664256 0.775197,0.664256 0.280307,0 0.560415,-0.221815 0.775197,-0.664256 l 5.534541,-11.396329 c 0.160037,-0.112755 0.329974,-0.197016 0.513094,-0.260705 0.19451,0.06309 0.384146,0.156906 0.567181,0.277363 l 5.524825,11.379693 c 0.214802,0.442425 0.494911,0.664252 0.775195,0.664252 0.280306,0 0.561808,-0.221815 0.776581,-0.664252 l 5.5276,-11.385241 c 0.164764,-0.118611 0.340419,-0.205971 0.529735,-0.271789 0.190065,0.06165 0.374785,0.152584 0.553317,0.269033 l 5.528983,11.388016 c 0.214802,0.442425 0.494904,0.664252 0.775192,0.664252 0.280306,0 0.560421,-0.221815 0.775194,-0.664252 l 6.025444,-12.408663 c 0.09701,-0.199834 0.17015,-0.42865 0.223286,-0.671188 0.225135,-0.499538 0.588158,-1.201415 1.012325,-1.605861 0.698724,-0.666238 2.297853,-1.225889 2.297853,-1.225889 v -0.06378 c 0.0191,-0.0085 0.03955,-0.01597 0.05824,-0.02505 L 76.231999,53.75475 c 0.442431,-0.214801 0.665643,-0.49352 0.665643,-0.773807 0,-0.280306 -0.223224,-0.560422 -0.665643,-0.775198 L 64.835667,46.671216 C 64.722912,46.51118 64.640029,46.34124 64.57634,46.15812 c 0.06309,-0.194542 0.156905,-0.385534 0.277363,-0.568569 l 11.379693,-5.524822 c 0.442428,-0.214801 0.664252,-0.493523 0.664252,-0.77381 0,-0.280306 -0.221815,-0.561809 -0.664252,-0.776582 L 64.848155,32.986744 c -0.118611,-0.164764 -0.205972,-0.340419 -0.27179,-0.529738 0.06165,-0.190034 0.152584,-0.374788 0.269034,-0.553317 l 11.388016,-5.52898 c 0.442427,-0.214802 0.664252,-0.494911 0.664252,-0.775198 0,-0.280306 -0.223224,-0.560421 -0.665643,-0.775194 L 63.823434,18.798873 C 63.567332,18.674533 63.266106,18.586232 62.945617,18.534004 62.439575,18.241047 61.823493,17.840049 61.46734,17.43708 60.851471,16.74026 60.215105,15.137846 60.215105,15.137846 h -0.0166 L 54.207644,2.7972073 C 53.992843,2.3547816 53.712743,2.1329501 53.432456,2.1329501 c -0.280306,0 -0.560425,0.2218214 -0.775198,0.6642572 L 47.12273,14.19354 c -0.160037,0.112761 -0.32998,0.197025 -0.5131,0.260705 -0.194542,-0.06309 -0.384149,-0.156905 -0.567185,-0.277344 L 40.517623,2.7972095 C 40.302822,2.3547841 40.02272,2.1329527 39.742432,2.1329527 c -0.280275,0 -0.561808,0.2218214 -0.776581,0.6642568 L 33.438254,14.182449 c -0.164764,0.118588 -0.340416,0.205964 -0.529735,0.271795 -0.190065,-0.06167 -0.374791,-0.152587 -0.55332,-0.269024 L 26.826219,2.7972054 C 26.61143,2.3547797 26.331308,2.1329483 26.051022,2.1329483 Z M 63.802574,32.407138 v 0.0014 l -0.01409,0.04299 0.0085,0.02505 c -0.01033,-0.0047 -0.02161,-0.0091 -0.03191,-0.01409 v -0.03883 c 0.01221,-0.0056 0.02536,-0.01096 0.03745,-0.0166 z m 0.0027,13.691411 -0.01659,0.0527 0.0056,0.01534 c -0.0097,-0.0047 -0.01941,-0.0094 -0.02912,-0.01409 v -0.03607 c 0.01346,-0.0059 0.02693,-0.0119 0.04024,-0.01785 z M 32.893248,63.27764 h 0.0056 c 0.01096,0.02536 0.02192,0.05026 0.03328,0.0749 l -0.05408,-0.01534 -0.01409,0.0041 c 0.01002,-0.02098 0.01973,-0.04218 0.02912,-0.06378 z m 13.690021,0 h 0.0056 c 0.01065,0.02442 0.02223,0.04828 0.03329,0.07211 l -0.04299,-0.01221 -0.0263,0.0069 c 0.01033,-0.02223 0.02067,-0.04406 0.03037,-0.06657 z"
             sodipodi:nodetypes="ccccscccscccccsccccssccccccscccccsccccsscccsccccscccccsccccsscccscccscccccscccccccccccccccccccccccccccccccccccc" />
          <path
             id="path2381"
             style="fill:#ffffff;fill-opacity:1;stroke:none;stroke-width:25.8844;stroke-linecap:round;stroke-linejoin:round;stroke-opacity:0.97992;paint-order:fill markers stroke"
             d="m 26.051013,2.1329395 c -0.280307,0 -0.560419,0.2218214 -0.775192,0.6642568 L 19.250381,15.20586 c -0.03632,0.07476 -0.06557,0.158085 -0.09569,0.239907 -0.272635,0.503967 -0.845653,1.512566 -1.345147,2.048236 -0.414097,0.444087 -1.181924,0.945319 -1.722347,1.271651 -0.218787,0.05195 -0.423681,0.120896 -0.606014,0.209384 L 3.0725302,25.000479 c -0.4424263,0.214801 -0.6656414,0.493523 -0.6656414,0.773807 0,0.280306 0.2232085,0.561805 0.6656414,0.776581 l 11.3963318,5.533142 c 0.112761,0.160036 0.195657,0.331364 0.259336,0.514487 -0.06309,0.194511 -0.156905,0.384143 -0.277353,0.567181 L 3.0711553,38.690499 c -0.4424257,0.214802 -0.6642565,0.493523 -0.6642565,0.773808 0,0.280306 0.2218152,0.561811 0.6642565,0.776581 l 11.3852337,5.528984 c 0.118611,0.164764 0.205962,0.339035 0.271808,0.528354 -0.06167,0.190034 -0.152587,0.376169 -0.26903,0.554698 L 3.0711553,52.38191 c -0.4424257,0.214802 -0.6642565,0.49352 -0.6642565,0.773808 0,0.280306 0.2232085,0.560421 0.6656414,0.775194 l 12.4086568,6.025441 c 0.41257,0.12556 0.597701,0.207062 0.863874,0.262106 0.564542,0.158158 1.265238,0.403385 1.664105,0.733597 0.820561,0.649608 0.857184,1.613332 1.241147,2.419879 l 6.02405,12.408666 c 0.214801,0.442425 0.49491,0.664256 0.775197,0.664256 0.280307,0 0.560415,-0.221815 0.775197,-0.664256 l 5.534541,-11.396329 c 0.160037,-0.112755 0.329974,-0.197016 0.513094,-0.260705 0.19451,0.06309 0.384146,0.156906 0.567181,0.277363 l 5.524825,11.379693 c 0.214802,0.442425 0.494911,0.664252 0.775195,0.664252 0.280306,0 0.561808,-0.221815 0.776581,-0.664252 l 5.5276,-11.385241 c 0.164764,-0.118611 0.340419,-0.205971 0.529735,-0.271789 0.190065,0.06165 0.374785,0.152584 0.553317,0.269033 l 5.528983,11.388016 c 0.214802,0.442425 0.494904,0.664252 0.775192,0.664252 0.280306,0 0.560421,-0.221815 0.775194,-0.664252 l 6.025444,-12.408663 c 0.09701,-0.199834 0.17015,-0.42865 0.223286,-0.671188 0.225135,-0.499538 0.588158,-1.201415 1.012325,-1.605861 0.698724,-0.666238 2.297853,-1.225889 2.297853,-1.225889 v -0.06378 c 0.0191,-0.0085 0.03955,-0.01597 0.05824,-0.02505 L 76.231999,53.75475 c 0.442431,-0.214801 0.665643,-0.49352 0.665643,-0.773807 0,-0.280306 -0.223224,-0.560422 -0.665643,-0.775198 L 64.835667,46.671216 C 64.722912,46.51118 64.640029,46.34124 64.57634,46.15812 c 0.06309,-0.194542 0.156905,-0.385534 0.277363,-0.568569 l 11.379693,-5.524822 c 0.442428,-0.214801 0.664252,-0.493523 0.664252,-0.77381 0,-0.280306 -0.221815,-0.561809 -0.664252,-0.776582 L 64.848155,32.986744 c -0.118611,-0.164764 -0.205972,-0.340419 -0.27179,-0.529738 0.06165,-0.190034 0.152584,-0.374788 0.269034,-0.553317 l 11.388016,-5.52898 c 0.442427,-0.214802 0.664252,-0.494911 0.664252,-0.775198 0,-0.280306 -0.223224,-0.560421 -0.665643,-0.775194 L 63.823434,18.798873 C 63.567332,18.674533 63.266106,18.586232 62.945617,18.534004 62.439575,18.241047 61.823493,17.840049 61.46734,17.43708 60.851471,16.74026 60.215105,15.137846 60.215105,15.137846 h -0.0166 L 54.207644,2.7972073 C 53.992843,2.3547816 53.712743,2.1329501 53.432456,2.1329501 c -0.280306,0 -0.560425,0.2218214 -0.775198,0.6642572 L 47.12273,14.19354 c -0.160037,0.112761 -0.32998,0.197025 -0.5131,0.260705 -0.194542,-0.06309 -0.384149,-0.156905 -0.567185,-0.277344 L 40.517623,2.7972095 C 40.302822,2.3547841 40.02272,2.1329527 39.742432,2.1329527 c -0.280275,0 -0.561808,0.2218214 -0.776581,0.6642568 L 33.438254,14.182449 c -0.164764,0.118588 -0.340416,0.205964 -0.529735,0.271795 -0.190065,-0.06167 -0.374791,-0.152587 -0.55332,-0.269024 L 26.826219,2.7972054 C 26.61143,2.3547797 26.331308,2.1329483 26.051022,2.1329483 Z M 63.802574,32.407138 v 0.0014 l -0.01409,0.04299 0.0085,0.02505 c -0.01033,-0.0047 -0.02161,-0.0091 -0.03191,-0.01409 v -0.03883 c 0.01221,-0.0056 0.02536,-0.01096 0.03745,-0.0166 z m 0.0027,13.691411 -0.01659,0.0527 0.0056,0.01534 c -0.0097,-0.0047 -0.01941,-0.0094 -0.02912,-0.01409 v -0.03607 c 0.01346,-0.0059 0.02693,-0.0119 0.04024,-0.01785 z M 32.893248,63.27764 h 0.0056 c 0.01096,0.02536 0.02192,0.05026 0.03328,0.0749 l -0.05408,-0.01534 -0.01409,0.0041 c 0.01002,-0.02098 0.01973,-0.04218 0.02912,-0.06378 z m 13.690021,0 h 0.0056 c 0.01065,0.02442 0.02223,0.04828 0.03329,0.07211 l -0.04299,-0.01221 -0.0263,0.0069 c 0.01033,-0.02223 0.02067,-0.04406 0.03037,-0.06657 z"
             sodipodi:nodetypes="ccccscccscccccsccccssccccccscccccsccccsscccsccccscccccsccccsscccscccscccccscccccccccccccccccccccccccccccccccccc" />
        </g>
        <g
           inkscape:label="Calque 1"
           id="g2385"
           style="fill:#ffffff;fill-opacity:1" />
      </g>
    </g>
  </g>
  <g
     inkscape:label="Calque 1"
     inkscape:groupmode="layer"
     id="layer1" />
</svg>
