<svg
   width="100%"
   height="100%"
   viewBox="0 0 300 300"
   version="1.1"
   id="svg5"
   inkscape:version="1.1.1 (3bf5ae0d25, 2021-09-20)"
   sodipodi:docname="settings.svg"
   xmlns:inkscape="http://www.inkscape.org/namespaces/inkscape"
   xmlns:sodipodi="http://sodipodi.sourceforge.net/DTD/sodipodi-0.dtd"
   xmlns="http://www.w3.org/2000/svg"
   xmlns:svg="http://www.w3.org/2000/svg">
  <defs
     id="defs2" />
  <g
     inkscape:label="Calque 1"
     inkscape:groupmode="layer"
     id="layer1">
    <path
       id="path846"
       style="fill:#000000;stroke-width:9.54052;stroke-linecap:round;stroke-linejoin:round;stroke-opacity:0.97992;paint-order:fill markers stroke"
       d="m 135.42177,0 c -6.80235,0 -10.18166,5.80826 -12.27915,12.279149 l -7.83984,24.186266 A 118.54713,118.54713 0 0 0 95.183787,44.932282 L 70.809414,34.423419 c -6.24656,-2.693028 -12.554294,-4.809977 -17.364286,0 L 33.625014,54.243535 c -4.809984,4.809984 -3.092461,11.305526 0,17.364284 l 11.744092,23.007468 a 118.54713,118.54713 0 0 0 -8.418794,19.849373 l -24.671163,9.8066 C 5.957906,126.78398 1.0701148e-5,129.74806 0,136.55041 v 28.0299 c 0,6.80234 5.8082611,10.17957 12.279149,12.27706 l 24.616822,7.97988 a 118.54713,118.54713 0 0 0 8.224417,19.54214 l -10.696968,24.8112 c -2.693028,6.24656 -4.80997,12.55428 0,17.36428 l 19.820115,19.82011 c 4.809984,4.80998 11.305527,3.09246 17.364285,0 l 23.410852,-11.94891 a 118.54713,118.54713 0 0 0 19.268328,8.17844 l 9.98427,25.11634 c 2.51271,6.32124 5.4768,12.27913 12.27914,12.27915 h 28.02781 c 6.80235,0 10.18166,-5.80826 12.27915,-12.27915 l 8.04258,-24.81329 a 118.54713,118.54713 0 0 0 19.34985,-8.0823 l 24.94078,10.75132 c 6.24656,2.69303 12.5543,4.80997 17.36429,0 l 19.82011,-19.82012 c 4.80998,-4.80999 3.09246,-11.30553 0,-17.36428 l -11.8883,-23.29172 a 118.54713,118.54713 0 0 0 8.32056,-19.46898 l 24.91361,-9.90275 C 294.04209,173.21601 300,170.25193 300,163.44958 v -28.0278 c 0,-6.80235 -5.80826,-10.18166 -12.27915,-12.27915 l -24.38273,-7.90255 a 118.54713,118.54713 0 0 0 -8.32475,-19.92671 l 10.56322,-24.503957 c 2.69302,-6.24656 4.80997,-12.554292 0,-17.364285 L 245.75646,33.625013 c -4.80999,-4.809983 -11.30552,-3.09246 -17.36427,0 l -22.88835,11.68348 a 118.54713,118.54713 0 0 0 -20.05001,-8.560918 l -9.7251,-24.468426 C 173.21601,5.957906 170.25193,9.6310333e-6 163.44959,0 Z m 14.57822,97.691862 A 53.505741,53.505741 0 0 1 203.50574,151.1976 53.505741,53.505741 0 0 1 149.99999,204.70334 53.505741,53.505741 0 0 1 96.494259,151.1976 53.505741,53.505741 0 0 1 149.99999,97.691862 Z" />
  </g>
  <g
     inkscape:groupmode="layer"
     id="layer2"
     inkscape:label="Calque 2" />
</svg>